<?xml version="1.0" encoding="UTF-8"?>
<svg id="Calque_1" data-name="Calque 1" xmlns="http://www.w3.org/2000/svg" viewBox="0 0 120.96 125.36">
  <defs>
    <style>
      .cls-1 {
        fill: none;
      }

      .cls-2 {
        font-family: Helvetica-Bold, Helvetica;
        font-size: 25.71px;
        font-weight: 700;
      }

      .cls-2, .cls-3 {
        fill: #127032;
      }

      .cls-4 {
        letter-spacing: -.02em;
      }
    </style>
  </defs>
  <path class="cls-1" d="M62.9,19.16l-2.92,8.86c.98-.24,3.17-.73,5.46-.96l-2.54-7.9Z"/>
  <path class="cls-1" d="M71.32,65.37c-.53.09-1.03.17-1.47.17-3.21,0-3.63-2.47-3.81-3.51-.17-1-.08-1.86.26-2.56h0s0,0,0,0c-.43,1.16-1.45,1.74-2.38,2.17-.68.3-1.25.43-1.82.43-1.59,0-2.91-1.06-3.94-3.29-1.62-3.46-1.19-10.16-1.17-10.44.02-.25.16-.46.39-.56.11-.05.23-.1.35-.09.12.01.24.06.35.13.25.17,6.1,4.34,7.71,7.8.73,1.56.9,2.82.52,3.86.57-1.16,1.84-1.89,3.86-2.25.47-.08,1.02-.13,1.6-.13,1.1,0,2.29.15,3.43.35l-.62-1.94c-1.49-.3-2.25-1.58-2.59-2.19-.98-1.73-.84-3.23.43-4.56l-1.12-3.48c-.1,0-.2.03-.31.03-.95,0-1.97-.33-3.21-1.04-3.31-1.91-6.83-7.6-6.98-7.84-.13-.21-.17-.52-.04-.74.12-.22.39-.31.61-.35.21,0,3.71.04,6.96.69l-.29-.91c-.06-.01-.11-.03-.16-.04-3.21-.86-7.27-4.43-8.4-5.48l-10.61,32.16c1.04,1.97,2.07,4.34,2.2,6.21.12,1.71-.19,2.94-.91,3.77-.03.03-.06.06-.09.09,1.06-.5,1.78-.87,1.78-.87-.27.26-.58.49-.87.74.92-.17,2.03-.04,3.38.43,3.61,1.28,8.13,6.24,8.32,6.46.17.19.21.45.13.69s-.27.43-.52.48c-.14.02-3.43.61-6.67.61-1.81,0-3.27-.19-4.33-.56-1.64-.58-2.65-1.34-3.12-2.34-.52-1.11-.22-2.25.13-3.21.1-.27.18-.51.3-.74-1.39.93-2.88,1.75-4.42,2.46l-2.59,7.85h42.08l-6.76-21.07c-1.76,1.16-3.85,2.31-5.57,2.62ZM59.93,41.28c.1-.08.23-.11.35-.13h0c.12-.02.23,0,.35.04.28.11,6.94,2.81,9.31,5.81,1.07,1.36,1.52,2.55,1.39,3.64-.15,1.22-1.01,2.02-1.82,2.64-.83.64-1.62.95-2.43.95-1.3,0-2.57-.8-3.86-2.43-2.37-3.01-3.51-9.6-3.55-9.88-.04-.25.06-.49.26-.65ZM54.77,67.88c-2.1,0-3.44-1.46-3.94-4.33-.66-3.76,1.47-10.13,1.56-10.4.08-.24.27-.39.52-.43h0c.25-.05.53.03.69.22.2.23,4.75,5.77,5.42,9.53.3,1.69.16,2.92-.48,3.81-.71,1.01-1.85,1.34-2.86,1.52-.31.05-.61.09-.91.09ZM72.32,71.35c-.23.09-5.73,2.25-9.57,2.25-.42,0-.8-.03-1.17-.09-1.71-.25-2.85-.8-3.51-1.69-.73-.99-.67-2.15-.52-3.16.33-2.01,1.4-3.13,3.34-3.34h0c.64-.07,1.37-.04,2.21.09,3.79.56,9.18,4.6,9.4,4.77.2.15.29.4.26.65-.03.25-.2.43-.43.52Z"/>
  <path class="cls-1" d="M47.15,72.95c-.13,0-.26,0-.39,0-.57,0-1.07-.09-1.52-.25l-.41,1.24c.98-.36,1.87-.71,2.66-1.03-.12.01-.23.04-.35.04Z"/>
  <path class="cls-3" d="M24.35,80.78l-1.08,3.04h18.31l2.59-7.85c-6.98,3.24-15,4.4-19.81,4.81Z"/>
  <path class="cls-3" d="M85.48,35.34c-.61,2.27-1.58,5.13-2.93,6.72-1.16,1.36-2.31,1.99-3.47,1.99s-2.01-.64-2.73-1.26c-2.05-1.76-1.99-3.83.13-6.33,1.83-2.15,5.77-3.99,7.7-4.8l-1.71-4.82c-.16.97-.4,1.87-.75,2.6-.95,1.98-2.12,2.95-3.6,2.95-.82,0-1.59-.31-2.21-.61-2.44-1.18-2.92-3.2-1.52-6.15,1.06-2.23,3.74-4.63,5.5-6.06L72.96,0h-19.79l-27.88,78.14c7.99-.53,14.81-2.46,19.54-4.19l.41-1.24c-1.48-.55-2.29-2.02-2.47-4.47-.26-3.81,2.48-9.92,2.6-10.18.11-.23.31-.37.56-.39.25-.02.51.1.65.3.09.13,1.18,1.75,2.26,3.8l10.61-32.16c-.17-.16-.28-.26-.3-.28-.18-.17-.24-.45-.17-.69.06-.24.23-.41.48-.48.04,0,.22-.06.52-.13l2.92-8.86,2.54,7.9c.74-.07,1.49-.12,2.21-.12h0,0c1.06,0,1.95.11,2.69.3,1.66.45,2.75,1.12,3.29,2.08.61,1.07.4,2.23.13,3.21-.55,1.95-1.75,2.9-3.68,2.9-.6,0-1.3-.11-2.04-.31l.29.91c1.45.29,2.85.71,3.87,1.3,1.5.87,2.37,1.79,2.64,2.86.31,1.19-.17,2.24-.69,3.12-.28.47-1.13,1.81-2.86,1.96l1.12,3.48c.46-.48,1.06-.94,1.83-1.38,3.24-1.85,9.82-1.95,10.09-1.95h0c.29,0,.48.13.61.35.13.21.17.48.04.69-.15.26-3.64,6.33-6.89,8.19-1.08.62-2.01.91-2.86.91-.23,0-.45-.02-.66-.07l.62,1.94c2.65.48,5.01,1.29,5.15,1.34.24.08.43.27.48.52.05.24-.03.53-.22.69-.12.1-1.7,1.43-3.71,2.75l6.76,21.07h18.99l-17.17-48.48ZM72.36,26.12c-.76.42-1.46.61-2.12.61-1.45,0-2.7-.96-3.81-2.9-1.87-3.23-1.95-9.77-1.95-10.05,0-.25.13-.48.35-.61.11-.06.23-.09.35-.09.12,0,.24.03.35.09.26.15,6.37,3.66,8.23,6.89.83,1.44,1.11,2.64.82,3.68-.33,1.19-1.31,1.88-2.21,2.38Z"/>
  <path class="cls-3" d="M71.97,53.33c.34.6,1.11,1.88,2.59,2.19l-2.17-6.75c-1.26,1.33-1.4,2.83-.43,4.56Z"/>
  <polygon points="66.3 59.48 66.3 59.48 66.3 59.48 66.3 59.48"/>
  <path class="cls-3" d="M70.15,57.23c-2.02.36-3.29,1.09-3.86,2.25,0,0,0,0,0,0h0c-.34.7-.43,1.56-.26,2.56.18,1.04.6,3.51,3.81,3.51.44,0,.95-.08,1.47-.17,1.72-.31,3.8-1.46,5.57-2.62l-1.7-5.3c-1.14-.21-2.33-.35-3.43-.35-.58,0-1.13.05-1.6.13Z"/>
  <path class="cls-3" d="M66.3,59.48c.38-1.03.21-2.3-.52-3.86-1.61-3.46-7.47-7.62-7.71-7.8-.1-.07-.23-.12-.35-.13-.12-.01-.23.03-.35.09-.23.11-.37.31-.39.56-.02.28-.45,6.98,1.17,10.44,1.03,2.23,2.35,3.29,3.94,3.29.57,0,1.14-.13,1.82-.43.93-.42,1.96-1.01,2.38-2.17h0s0,0,0,0Z"/>
  <path class="cls-3" d="M72.49,70.18c-.23-.17-5.61-4.2-9.4-4.77-.83-.13-1.56-.16-2.21-.09h0c-1.93.21-3.01,1.33-3.34,3.34-.15,1.01-.21,2.17.52,3.16.65.89,1.8,1.44,3.51,1.69.37.06.75.09,1.17.09,3.84,0,9.34-2.16,9.57-2.25.23-.09.4-.27.43-.52.03-.25-.06-.5-.26-.65Z"/>
  <path class="cls-3" d="M58.54,66.28c.63-.9.77-2.12.48-3.81-.66-3.77-5.22-9.3-5.42-9.53-.16-.19-.44-.26-.69-.22h0c-.25.05-.44.2-.52.43-.09.27-2.22,6.64-1.56,10.4.5,2.87,1.85,4.33,3.94,4.33.3,0,.6-.04.91-.09,1.01-.17,2.15-.51,2.86-1.52Z"/>
  <path class="cls-3" d="M60.75,35.69c-.12.22-.09.52.04.74.15.24,3.66,5.93,6.98,7.84,1.23.71,2.26,1.04,3.21,1.04.11,0,.2-.02.31-.03l-2.97-9.24c-3.24-.65-6.75-.69-6.96-.69-.21.03-.48.13-.61.35Z"/>
  <path class="cls-3" d="M63.22,51.81c1.28,1.63,2.55,2.43,3.86,2.43.81,0,1.6-.31,2.43-.95.81-.62,1.67-1.42,1.82-2.64.14-1.09-.32-2.28-1.39-3.64-2.37-3-9.03-5.69-9.31-5.81-.12-.05-.23-.06-.35-.04h0c-.12.02-.25.05-.35.13-.2.16-.3.4-.26.65.05.28,1.19,6.87,3.55,9.88Z"/>
  <path class="cls-3" d="M48.58,73.52c-.12.23-.21.47-.3.74-.35.95-.65,2.09-.13,3.21.47,1,1.48,1.76,3.12,2.34,1.06.37,2.52.56,4.33.56,3.24,0,6.53-.58,6.67-.61.25-.05.44-.24.52-.48s.04-.51-.13-.69c-.19-.21-4.71-5.18-8.32-6.46-1.35-.48-2.46-.61-3.38-.43.29-.25.59-.48.87-.74,0,0-.71.37-1.78.87.03-.03.06-.05.09-.09.72-.83,1.03-2.06.91-3.77-.13-1.86-1.16-4.24-2.2-6.21l-3.61,10.94c.45.17.95.25,1.52.25.13,0,.26,0,.39,0,.11,0,.23-.03.35-.04-.79.33-1.69.68-2.66,1.03l-.67,2.03c1.54-.71,3.03-1.53,4.42-2.46Z"/>
  <path class="cls-3" d="M68.02,35.13l-2.59-8.07c-2.29.23-4.48.72-5.46.96l-.52,1.59c1.14,1.04,5.2,4.62,8.4,5.48.06.02.11.03.16.04Z"/>
  <text class="cls-2" transform="translate(0 112.99)"><tspan x="0" y="0">Agro </tspan><tspan class="cls-4" x="67.12" y="0">V</tspan><tspan x="83.81" y="0">ida</tspan></text>
</svg>