<svg width="505" height="360" viewBox="0 0 505 360" fill="none" xmlns="http://www.w3.org/2000/svg">
<path d="M103.077 144.666V256.302L102.338 257.041H103.077V359.13H0.5V358.979L46.876 312.558H47.2998V312.133L46.876 312.558H0.5V201.512H47.2998V88.835L103.077 144.666ZM448.355 0.5V144.667L448.027 144.995H337.158L336.83 144.667V88.4658H280.684L281.054 88.835V257.042H336.83V312.558H392.593V201.512H393.619L448.355 256.302V257.042H504.133V359.13H234.254V312.558H192.804L192.805 88.4658H234.254V41.8389H281.054V0.5H448.355ZM103.077 103.327L47.2998 47.4961L47.3008 0.5H103.077V103.327Z" fill="black"/>
<path d="M103.077 144.666H103.577V144.459L103.431 144.313L103.077 144.666ZM103.077 256.302L103.431 256.655L103.577 256.509V256.302H103.077ZM102.338 257.041L101.984 256.687L101.131 257.541H102.338V257.041ZM103.077 257.041H103.577V256.541H103.077V257.041ZM103.077 359.13V359.63H103.577V359.13H103.077ZM0.5 359.13H0V359.63H0.5V359.13ZM0.5 358.979L0.146275 358.625L0 358.772V358.979H0.5ZM47.2998 312.558V313.058H47.7998V312.558H47.2998ZM47.2998 312.133H47.7998V310.924L46.9458 311.78L47.2998 312.133ZM0.5 312.558H0V313.058H0.5V312.558ZM0.5 201.512V201.012H0V201.512H0.5ZM47.2998 201.512V202.012H47.7998V201.512H47.2998ZM47.2998 88.835L47.6535 88.4816L46.7998 87.627V88.835H47.2998ZM448.355 0.5H448.855V0H448.355V0.5ZM448.355 144.667L448.709 145.021L448.855 144.874V144.667H448.355ZM448.027 144.995V145.495H448.234L448.381 145.349L448.027 144.995ZM337.158 144.995L336.805 145.349L336.951 145.495H337.158V144.995ZM336.83 144.667H336.33V144.874L336.477 145.021L336.83 144.667ZM336.83 88.4658H337.33V87.9658H336.83V88.4658ZM280.684 88.4658V87.9658H279.474L280.331 88.8198L280.684 88.4658ZM281.054 88.835H281.554V88.6275L281.407 88.4809L281.054 88.835ZM281.054 257.042H280.554V257.542H281.054V257.042ZM336.83 257.042H337.33V256.542H336.83V257.042ZM336.83 312.558H336.33V313.058H336.83V312.558ZM392.593 312.558V313.058H393.093V312.558H392.593ZM392.593 201.512V201.012H392.093V201.512H392.593ZM393.619 201.512L393.973 201.158L393.826 201.012H393.619V201.512ZM448.355 256.302H448.855V256.095L448.709 255.948L448.355 256.302ZM448.355 257.042H447.855V257.542H448.355V257.042ZM504.133 257.042H504.633V256.542H504.133V257.042ZM504.133 359.13V359.63H504.633V359.13H504.133ZM234.254 359.13H233.754V359.63H234.254V359.13ZM234.254 312.558H234.754V312.058H234.254V312.558ZM192.804 312.558H192.304V313.058H192.804V312.558ZM192.805 88.4658V87.9658H192.305V88.4658H192.805ZM234.254 88.4658V88.9658H234.754V88.4658H234.254ZM234.254 41.8389V41.3389H233.754V41.8389H234.254ZM281.054 41.8389V42.3389H281.554V41.8389H281.054ZM281.054 0.5V0H280.554V0.5H281.054ZM103.077 103.327L102.723 103.681L103.577 104.535V103.327H103.077ZM47.2998 47.4961L46.7998 47.4961L46.7998 47.7031L46.9461 47.8495L47.2998 47.4961ZM47.3008 0.5V0H46.8008L46.8008 0.49999L47.3008 0.5ZM103.077 0.5H103.577V0H103.077V0.5ZM103.077 144.666H102.577V256.302H103.077H103.577V144.666H103.077ZM103.077 256.302L102.724 255.948L101.984 256.687L102.338 257.041L102.691 257.395L103.431 256.655L103.077 256.302ZM102.338 257.041V257.541H103.077V257.041V256.541H102.338V257.041ZM103.077 257.041H102.577V359.13H103.077H103.577V257.041H103.077ZM103.077 359.13V358.63H0.5V359.13V359.63H103.077V359.13ZM0.5 359.13H1V358.979H0.5H0V359.13H0.5ZM0.5 358.979L0.853725 359.332L47.2297 312.911L46.876 312.558L46.5223 312.204L0.146275 358.625L0.5 358.979ZM46.876 312.558V313.058H47.2998V312.558V312.058H46.876V312.558ZM47.2998 312.558H47.7998V312.133H47.2998H46.7998V312.558H47.2998ZM47.2998 312.133L46.9458 311.78L46.522 312.204L46.876 312.558L47.2299 312.911L47.6538 312.486L47.2998 312.133ZM46.876 312.558V312.058H0.5V312.558V313.058H46.876V312.558ZM0.5 312.558H1V201.512H0.5H0V312.558H0.5ZM0.5 201.512V202.012H47.2998V201.512V201.012H0.5V201.512ZM47.2998 201.512H47.7998V88.835H47.2998H46.7998V201.512H47.2998ZM47.2998 88.835L46.9461 89.1883L102.723 145.019L103.077 144.666L103.431 144.313L47.6535 88.4816L47.2998 88.835ZM448.355 0.5H447.855V144.667H448.355H448.855V0.5H448.355ZM448.355 144.667L448.002 144.313L447.674 144.642L448.027 144.995L448.381 145.349L448.709 145.021L448.355 144.667ZM448.027 144.995V144.495H337.158V144.995V145.495H448.027V144.995ZM337.158 144.995L337.512 144.642L337.184 144.313L336.83 144.667L336.477 145.021L336.805 145.349L337.158 144.995ZM336.83 144.667H337.33V88.4658H336.83H336.33V144.667H336.83ZM336.83 88.4658V87.9658H280.684V88.4658V88.9658H336.83V88.4658ZM280.684 88.4658L280.331 88.8198L280.701 89.189L281.054 88.835L281.407 88.4809L281.037 88.1118L280.684 88.4658ZM281.054 88.835H280.554V257.042H281.054H281.554V88.835H281.054ZM281.054 257.042V257.542H336.83V257.042V256.542H281.054V257.042ZM336.83 257.042H336.33V312.558H336.83H337.33V257.042H336.83ZM336.83 312.558V313.058H392.593V312.558V312.058H336.83V312.558ZM392.593 312.558H393.093V201.512H392.593H392.093V312.558H392.593ZM392.593 201.512V202.012H393.619V201.512V201.012H392.593V201.512ZM393.619 201.512L393.265 201.865L448.002 256.655L448.355 256.302L448.709 255.948L393.973 201.158L393.619 201.512ZM448.355 256.302H447.855V257.042H448.355H448.855V256.302H448.355ZM448.355 257.042V257.542H504.133V257.042V256.542H448.355V257.042ZM504.133 257.042H503.633V359.13H504.133H504.633V257.042H504.133ZM504.133 359.13V358.63H234.254V359.13V359.63H504.133V359.13ZM234.254 359.13H234.754V312.558H234.254H233.754V359.13H234.254ZM234.254 312.558V312.058H192.804V312.558V313.058H234.254V312.558ZM192.804 312.558H193.304L193.305 88.4658H192.805H192.305L192.304 312.558H192.804ZM192.805 88.4658V88.9658H234.254V88.4658V87.9658H192.805V88.4658ZM234.254 88.4658H234.754V41.8389H234.254H233.754V88.4658H234.254ZM234.254 41.8389V42.3389H281.054V41.8389V41.3389H234.254V41.8389ZM281.054 41.8389H281.554V0.5H281.054H280.554V41.8389H281.054ZM281.054 0.5V1H448.355V0.5V0H281.054V0.5ZM103.077 103.327L103.431 102.974L47.6535 47.1427L47.2998 47.4961L46.9461 47.8495L102.723 103.681L103.077 103.327ZM47.2998 47.4961L47.7998 47.4961L47.8008 0.50001L47.3008 0.5L46.8008 0.49999L46.7998 47.4961L47.2998 47.4961ZM47.3008 0.5V1H103.077V0.5V0H47.3008V0.5ZM103.077 0.5H102.577V103.327H103.077H103.577V0.5H103.077Z" fill="black"/>
</svg>
