<svg width="1032" height="199" viewBox="0 0 1032 199" fill="none" xmlns="http://www.w3.org/2000/svg">
<path d="M71.2578 84.5625C82.0039 84.5625 90.362 83.07 96.332 80.085C105.714 75.3942 110.404 66.9508 110.404 54.7549C110.404 42.4736 105.415 34.2008 95.4365 29.9365C89.8076 27.5485 81.4495 26.3545 70.3623 26.3545H24.9473V84.5625H71.2578ZM79.8291 171.299C95.4365 171.299 106.566 166.779 113.219 157.738C117.398 152.024 119.487 145.116 119.487 137.014C119.487 123.368 113.389 114.072 101.193 109.125C94.7116 106.481 86.1403 105.159 75.4795 105.159H24.9473V171.299H79.8291ZM0.000976562 5.11816H80.7246C102.729 5.11816 118.379 11.6852 127.675 24.8193C133.133 32.5804 135.862 41.5355 135.862 51.6846C135.862 63.5394 132.493 73.262 125.756 80.8525C122.259 84.861 117.227 88.5283 110.66 91.8545C120.298 95.5218 127.504 99.6582 132.28 104.264C140.724 112.451 144.945 123.752 144.945 138.165C144.945 150.276 141.15 161.235 133.56 171.043C122.216 185.712 104.178 193.047 79.4453 193.047H0.000976562V5.11816ZM181.149 5.11816H206.863V193.047H181.149V5.11816ZM264.943 132.408C265.54 143.069 268.056 151.726 272.491 158.378C280.935 170.83 295.817 177.056 317.139 177.056C326.691 177.056 335.39 175.691 343.236 172.962C358.417 167.674 366.008 158.207 366.008 144.562C366.008 134.327 362.81 127.035 356.413 122.686C349.931 118.421 339.782 114.711 325.966 111.556L300.508 105.799C283.877 102.046 272.107 97.9098 265.199 93.3896C253.259 85.5433 247.289 73.8164 247.289 58.209C247.289 41.3223 253.131 27.4632 264.815 16.6318C276.5 5.80046 293.045 0.384766 314.452 0.384766C334.153 0.384766 350.869 5.16081 364.601 14.7129C378.417 24.1797 385.325 39.3607 385.325 60.2559H361.402C360.123 50.1921 357.394 42.4736 353.215 37.1006C345.454 27.2926 332.277 22.3887 313.685 22.3887C298.674 22.3887 287.885 25.5443 281.318 31.8555C274.751 38.1667 271.468 45.5013 271.468 53.8594C271.468 63.0703 275.306 69.8079 282.981 74.0723C288.013 76.8014 299.399 80.2129 317.139 84.3066L343.492 90.3193C356.2 93.2191 366.008 97.1849 372.916 102.217C384.856 111.001 390.826 123.752 390.826 140.468C390.826 161.278 383.236 176.16 368.055 185.115C352.959 194.07 335.39 198.548 315.348 198.548C291.979 198.548 273.685 192.578 260.466 180.638C247.246 168.783 240.765 152.706 241.021 132.408H264.943ZM423.704 5.11816H449.418V82.7715H547.156V5.11816H572.87V193.047H547.156V105.159H449.418V193.047H423.704V5.11816ZM614.831 165.158H641.568V193.047H614.831V165.158ZM766.428 0.000976562C799.604 0.000976562 824.167 10.6618 840.115 31.9834C852.567 48.6143 858.793 69.8932 858.793 95.8203C858.793 123.88 851.672 147.205 837.429 165.798C820.713 187.631 796.875 198.548 765.916 198.548C737.004 198.548 714.275 188.996 697.729 169.892C682.975 151.47 675.598 128.187 675.598 100.042C675.598 74.6266 681.909 52.8786 694.531 34.7979C710.736 11.5999 734.701 0.000976562 766.428 0.000976562ZM768.986 175.776C791.417 175.776 807.621 167.759 817.6 151.726C827.663 135.606 832.695 117.099 832.695 96.2041C832.695 74.1149 826.896 56.3327 815.297 42.8574C803.783 29.3822 788.005 22.6445 767.963 22.6445C748.518 22.6445 732.654 29.3395 720.373 42.7295C708.092 56.0342 701.951 75.6927 701.951 101.705C701.951 122.515 707.196 140.084 717.687 154.412C728.262 168.655 745.362 175.776 768.986 175.776ZM891.671 5.11816H976.232C992.949 5.11816 1006.42 9.85156 1016.66 19.3184C1026.89 28.6999 1032.01 41.9193 1032.01 58.9766C1032.01 73.6458 1027.45 86.4388 1018.32 97.3555C1009.2 108.187 995.166 113.603 976.232 113.603H917.129V193.047H891.671V5.11816ZM1006.3 59.1045C1006.3 45.2881 1001.18 35.9066 990.944 30.96C985.315 28.3161 977.597 26.9941 967.789 26.9941H917.129V92.1104H967.789C979.217 92.1104 988.471 89.6797 995.55 84.8184C1002.71 79.957 1006.3 71.3857 1006.3 59.1045Z" fill="black"/>
</svg>
