{
	"asset":{
		"generator":"Khronos glTF Blender I/O v3.6.27",
		"version":"2.0"
	},
	"extensionsUsed":[
		"KHR_materials_emissive_strength",
		"KHR_materials_specular",
		"KHR_texture_transform",
		"KHR_lights_punctual"
	],
	"extensionsRequired":[
		"KHR_texture_transform",
		"KHR_lights_punctual"
	],
	"extensions":{
		"KHR_lights_punctual":{
			"lights":[
				{
					"color":[
						0.9365604519844055,
						0.038605473935604095,
						0.0687912255525589
					],
					"intensity":3179.5576643541126,
					"spot":{
						"innerConeAngle":0.1699761069244925,
						"outerConeAngle":0.48021116852760315
					},
					"type":"spot",
					"name":"Spot.002"
				},
				{
					"color":[
						1,
						0.04330671578645706,
						0.09411978721618652
					],
					"intensity":14332.466630269055,
					"spot":{
						"innerConeAngle":0.8320570529765448,
						"outerConeAngle":0.9788906574249268
					},
					"type":"spot",
					"name":"Spot.003"
				},
				{
					"color":[
						0.20828430354595184,
						0.36264997720718384,
						0.2780720591545105
					],
					"intensity":913.1035943728912,
					"spot":{
						"innerConeAngle":0.13557141658037253,
						"outerConeAngle":0.3830121159553528
					},
					"type":"spot",
					"name":"Spot.004"
				},
				{
					"color":[
						0.49461865425109863,
						1,
						0.6691250205039978
					],
					"intensity":5299.262359255147,
					"spot":{
						"innerConeAngle":0.1699761069244925,
						"outerConeAngle":0.48021116852760315
					},
					"type":"spot",
					"name":"Spot.001"
				}
			]
		}
	},
	"scene":0,
	"scenes":[
		{
			"name":"Scene",
			"nodes":[
				0,
				1,
				2,
				3,
				4,
				6,
				7,
				8,
				9,
				10,
				11,
				12,
				13,
				14,
				15,
				16,
				17,
				19,
				20,
				21,
				22,
				23,
				24,
				25,
				26,
				27,
				28,
				29,
				30,
				31,
				32,
				33,
				34,
				35,
				36,
				37,
				38,
				39,
				40,
				41,
				42
			]
		}
	],
	"nodes":[
		{
			"mesh":0,
			"name":"TOIT",
			"translation":[
				0,
				0.48253747820854187,
				0
			]
		},
		{
			"mesh":1,
			"name":"LOGO V1",
			"rotation":[
				0.5,
				0.5,
				-0.5,
				0.5
			],
			"scale":[
				12.551756858825684,
				12.551756858825684,
				12.551756858825684
			],
			"translation":[
				-4.003537178039551,
				1.0293679237365723,
				-0.2369275987148285
			]
		},
		{
			"mesh":2,
			"name":"Silhouette"
		},
		{
			"mesh":3,
			"name":"LOGO V2",
			"translation":[
				0.8897396326065063,
				0,
				0
			]
		},
		{
			"mesh":4,
			"name":"ECHELLE",
			"translation":[
				0.9932729005813599,
				0,
				0
			]
		},
		{
			"mesh":5,
			"name":"Wood chair.008",
			"rotation":[
				0,
				1,
				0,
				1.9431239195455419e-07
			],
			"scale":[
				3.06746506690979,
				3.067464828491211,
				3.06746506690979
			]
		},
		{
			"children":[
				5
			],
			"name":"CHAISE",
			"rotation":[
				0,
				0.4813033640384674,
				0,
				0.8765541911125183
			],
			"scale":[
				0.3260021209716797,
				0.3260021209716797,
				0.3260021209716797
			],
			"translation":[
				-3.59091854095459,
				-0.02383078634738922,
				-3.1434531211853027
			]
		},
		{
			"mesh":6,
			"name":"spiraleRouge",
			"rotation":[
				0,
				0,
				-0.7071068286895752,
				0.7071068286895752
			],
			"scale":[
				6.28787899017334,
				6.28787899017334,
				6.28787899017334
			],
			"translation":[
				-6.647274494171143,
				3.469852924346924,
				-0.45921555161476135
			]
		},
		{
			"name":"Area",
			"rotation":[
				-0.6097578406333923,
				0.35804376006126404,
				-0.35804376006126404,
				0.6097579002380371
			],
			"translation":[
				-0.14545738697052002,
				4.2220659255981445,
				-0.7447842359542847
			]
		},
		{
			"mesh":7,
			"name":"Cube"
		},
		{
			"mesh":8,
			"name":"MASQUE"
		},
		{
			"mesh":9,
			"name":"Podium"
		},
		{
			"mesh":10,
			"name":"fond",
			"rotation":[
				0,
				0,
				-0.7071068286895752,
				0.7071068286895752
			],
			"scale":[
				6.163669586181641,
				4.983669757843018,
				25.383668899536133
			],
			"translation":[
				-6.69749116897583,
				5.759215831756592,
				0.7027931213378906
			]
		},
		{
			"mesh":11,
			"name":"Sol",
			"scale":[
				11.609999656677246,
				1,
				23.43000030517578
			],
			"translation":[
				3.7567543983459473,
				-0.01640445366501808,
				0
			]
		},
		{
			"extensions":{
				"KHR_lights_punctual":{
					"light":0
				}
			},
			"name":"Spot.001",
			"rotation":[
				0.015135648660361767,
				0.5450136065483093,
				-0.8374452590942383,
				0.03763686865568161
			],
			"scale":[
				-0.21576066315174103,
				-0.21576064825057983,
				-0.21576064825057983
			],
			"translation":[
				-1.7637684345245361,
				2.9972524642944336,
				-14.148375511169434
			]
		},
		{
			"extensions":{
				"KHR_lights_punctual":{
					"light":1
				}
			},
			"name":"Spot.002",
			"rotation":[
				-0.5446535348892212,
				-0.4469739496707916,
				0.7015097141265869,
				0.10700944066047668
			],
			"scale":[
				0.06627533584833145,
				0.06627531349658966,
				0.06627533584833145
			],
			"translation":[
				-2.882167339324951,
				0.47695454955101013,
				-12.954561233520508
			]
		},
		{
			"extensions":{
				"KHR_lights_punctual":{
					"light":2
				}
			},
			"name":"Spot.003",
			"rotation":[
				0.2554117441177368,
				0.7529980540275574,
				-0.07321058958768845,
				0.6019958257675171
			],
			"scale":[
				0.21576064825057983,
				0.21576064825057983,
				0.21576064825057983
			],
			"translation":[
				-0.5467099547386169,
				0.240420863032341,
				-13.464929580688477
			]
		},
		{
			"extensions":{
				"KHR_lights_punctual":{
					"light":3
				}
			},
			"name":"Spot",
			"rotation":[
				-0.5450135469436646,
				0.015135652385652065,
				0.03763686493039131,
				0.8374453186988831
			],
			"scale":[
				0.21576066315174103,
				0.21576064825057983,
				0.21576064825057983
			],
			"translation":[
				-1.7637684345245361,
				2.9972524642944336,
				-11.762208938598633
			]
		},
		{
			"mesh":12,
			"name":"Grass Generic Small ",
			"scale":[
				1.4260895252227783,
				1.4260895252227783,
				3.7574210166931152
			],
			"translation":[
				-3.387911319732666,
				-0.21214909851551056,
				16.895206451416016
			]
		},
		{
			"children":[
				18
			],
			"name":"HERBE",
			"scale":[
				1,
				1,
				1.4881569147109985
			],
			"translation":[
				0,
				0,
				-8.033058166503906
			]
		},
		{
			"mesh":13,
			"name":"CHAPTER SONGS"
		},
		{
			"mesh":14,
			"name":"SONG1"
		},
		{
			"mesh":15,
			"name":"SONG2"
		},
		{
			"mesh":16,
			"name":"SONG3"
		},
		{
			"mesh":17,
			"name":"SONG4"
		},
		{
			"mesh":18,
			"name":"SONG5"
		},
		{
			"mesh":19,
			"name":"SONG6"
		},
		{
			"mesh":20,
			"name":"SONG7"
		},
		{
			"mesh":21,
			"name":"TIME1"
		},
		{
			"mesh":22,
			"name":"TIME2"
		},
		{
			"mesh":23,
			"name":"TIME3"
		},
		{
			"mesh":24,
			"name":"TIME4"
		},
		{
			"mesh":25,
			"name":"TIME5"
		},
		{
			"mesh":26,
			"name":"TIME6"
		},
		{
			"mesh":27,
			"name":"TIME7"
		},
		{
			"mesh":28,
			"name":"ARBRES"
		},
		{
			"name":"Area.001",
			"rotation":[
				-0.5202884674072266,
				-0.4788527190685272,
				0.4788527190685272,
				0.5202884674072266
			],
			"translation":[
				-5.6581244468688965,
				3.0278701782226562,
				17.33677101135254
			]
		},
		{
			"name":"Area.002",
			"rotation":[
				-0.5202884674072266,
				-0.4788527190685272,
				0.4788527190685272,
				0.5202884674072266
			],
			"translation":[
				-5.6581244468688965,
				3.0278701782226562,
				16.696962356567383
			]
		},
		{
			"name":"Area.003",
			"rotation":[
				-0.5202884674072266,
				-0.4788527190685272,
				0.4788527190685272,
				0.5202884674072266
			],
			"translation":[
				-5.6581244468688965,
				3.0278701782226562,
				14.707409858703613
			]
		},
		{
			"name":"Area.004",
			"rotation":[
				-0.3842204809188843,
				-0.593611478805542,
				0.5936115384101868,
				0.3842204809188843
			],
			"translation":[
				-5.55734920501709,
				2.9211363792419434,
				14.067601203918457
			]
		},
		{
			"name":"Area.005",
			"rotation":[
				-0.5202884674072266,
				-0.4788527190685272,
				0.4788527190685272,
				0.5202884674072266
			],
			"translation":[
				-5.6581244468688965,
				3.0278701782226562,
				20.512178421020508
			]
		},
		{
			"name":"Area.006",
			"rotation":[
				-0.5202884674072266,
				-0.4788527190685272,
				0.4788527190685272,
				0.5202884674072266
			],
			"translation":[
				-5.6581244468688965,
				3.0278701782226562,
				19.87236976623535
			]
		},
		{
			"name":"Area.007",
			"rotation":[
				-0.4677415192127228,
				-0.5302997827529907,
				0.530299961566925,
				0.467741459608078
			],
			"scale":[
				0.6210495233535767,
				3.8546152114868164,
				0.5122474431991577
			],
			"translation":[
				-5.1825690269470215,
				0.7706351280212402,
				16.587116241455078
			]
		}
	],
	"materials":[
		{
			"doubleSided":true,
			"name":"mur spirale.001",
			"pbrMetallicRoughness":{
				"baseColorFactor":[
					0,
					0,
					0,
					1
				],
				"metallicFactor":0
			}
		},
		{
			"doubleSided":true,
			"emissiveFactor":[
				1,
				0.12075203148523725,
				0.18645954782811983
			],
			"extensions":{
				"KHR_materials_emissive_strength":{
					"emissiveStrength":2.268955425756161
				}
			},
			"name":"emission",
			"pbrMetallicRoughness":{
				"baseColorFactor":[
					0,
					0,
					0,
					1
				]
			}
		},
		{
			"alphaMode":"BLEND",
			"doubleSided":true,
			"name":"Silhouette",
			"pbrMetallicRoughness":{
				"baseColorTexture":{
					"index":0
				},
				"metallicFactor":0,
				"roughnessFactor":0.5
			}
		},
		{
			"extensions":{
				"KHR_materials_specular":{
					"specularColorFactor":[
						1.0,
						1.0,
						1.0
					]
				}
			},
			"name":"Material_0.007",
			"normalTexture":{
				"index":1
			},
			"occlusionTexture":{
				"index":2
			},
			"pbrMetallicRoughness":{
				"baseColorTexture":{
					"index":3
				},
				"metallicFactor":0
			}
		},
		{
			"doubleSided":true,
			"name":"Wood",
			"normalTexture":{
				"index":4
			},
			"pbrMetallicRoughness":{
				"baseColorTexture":{
					"index":5
				},
				"metallicFactor":0,
				"metallicRoughnessTexture":{
					"index":6
				}
			}
		},
		{
			"alphaMode":"BLEND",
			"doubleSided":true,
			"name":"PORTAIL",
			"pbrMetallicRoughness":{
				"baseColorFactor":[
					0.17904914915561676,
					0.013280589133501053,
					0.018318716436624527,
					1
				],
				"metallicFactor":0.34645670652389526,
				"roughnessFactor":0.5
			}
		},
		{
			"alphaMode":"BLEND",
			"name":"Material.007",
			"pbrMetallicRoughness":{
				"baseColorFactor":[
					0.800000011920929,
					0.800000011920929,
					0.800000011920929,
					0.6301369667053223
				],
				"roughnessFactor":0
			}
		},
		{
			"doubleSided":true,
			"name":"MAT2",
			"pbrMetallicRoughness":{
				"baseColorFactor":[
					0.8000000715255737,
					0.33655500411987305,
					0.4426170587539673,
					1
				],
				"roughnessFactor":0.061933547258377075
			}
		},
		{
			"doubleSided":true,
			"name":"black_steel.002",
			"pbrMetallicRoughness":{
				"metallicFactor":0.7185760140419006,
				"roughnessFactor":0.23886901140213013
			}
		},
		{
			"doubleSided":true,
			"name":"Material.004",
			"pbrMetallicRoughness":{
				"baseColorFactor":[
					0.014348555356264114,
					0.014348555356264114,
					0.014348555356264114,
					1
				],
				"metallicFactor":0,
				"roughnessFactor":0.5
			}
		},
		{
			"alphaMode":"BLEND",
			"doubleSided":true,
			"name":"Panels 03.001",
			"normalTexture":{
				"extensions":{
					"KHR_texture_transform":{
						"offset":[
							1.9999998807907104,
							0.5999999940395355
						],
						"scale":[
							0.25,
							0.4000000059604645
						]
					}
				},
				"index":7
			},
			"pbrMetallicRoughness":{
				"baseColorTexture":{
					"extensions":{
						"KHR_texture_transform":{
							"offset":[
								1.9999998807907104,
								0.5999999940395355
							],
							"scale":[
								0.25,
								0.4000000059604645
							]
						}
					},
					"index":8
				},
				"metallicRoughnessTexture":{
					"extensions":{
						"KHR_texture_transform":{
							"offset":[
								1.9999998807907104,
								0.5999999940395355
							],
							"scale":[
								0.25,
								0.4000000059604645
							]
						}
					},
					"index":9
				}
			}
		},
		{
			"doubleSided":true,
			"name":"mur spirale",
			"pbrMetallicRoughness":{
				"baseColorFactor":[
					0,
					0,
					0,
					1
				],
				"metallicFactor":0
			}
		},
		{
			"doubleSided":true,
			"name":"SolNew",
			"pbrMetallicRoughness":{
				"baseColorFactor":[
					0.008569564670324326,
					0.00856775138527155,
					0.008567507378757,
					1
				],
				"metallicFactor":0
			}
		},
		{
			"alphaCutoff":0.5,
			"alphaMode":"MASK",
			"doubleSided":true,
			"name":"M Grass Generic Set",
			"pbrMetallicRoughness":{}
		},
		{
			"doubleSided":true,
			"emissiveFactor":[
				0.5707815885204415,
				1,
				0.573583964983583
			],
			"extensions":{
				"KHR_materials_emissive_strength":{
					"emissiveStrength":1.9023424139575695
				}
			},
			"name":"Material",
			"pbrMetallicRoughness":{
				"baseColorFactor":[
					0,
					0,
					0,
					1
				]
			}
		},
		{
			"doubleSided":true,
			"name":"NOIR",
			"pbrMetallicRoughness":{
				"baseColorFactor":[
					0,
					0,
					0,
					1
				],
				"metallicFactor":0,
				"roughnessFactor":0.5
			}
		}
	],
	"meshes":[
		{
			"name":"Cylinder",
			"primitives":[
				{
					"attributes":{
						"POSITION":0,
						"NORMAL":1,
						"TEXCOORD_0":2
					},
					"indices":3,
					"material":0
				}
			]
		},
		{
			"name":"Curve.002",
			"primitives":[
				{
					"attributes":{
						"POSITION":4,
						"NORMAL":5,
						"TEXCOORD_0":6
					},
					"indices":7,
					"material":1
				}
			]
		},
		{
			"name":"Silhouette",
			"primitives":[
				{
					"attributes":{
						"POSITION":8,
						"NORMAL":9,
						"TEXCOORD_0":10
					},
					"indices":11,
					"material":2
				}
			]
		},
		{
			"name":"Curve.003",
			"primitives":[
				{
					"attributes":{
						"POSITION":12,
						"NORMAL":13,
						"TEXCOORD_0":14
					},
					"indices":15,
					"material":1
				}
			]
		},
		{
			"name":"Mesh_0.007",
			"primitives":[
				{
					"attributes":{
						"POSITION":16,
						"NORMAL":17,
						"TEXCOORD_0":18
					},
					"indices":19,
					"material":3
				},
				{
					"attributes":{
						"POSITION":20,
						"NORMAL":21,
						"TEXCOORD_0":22
					},
					"indices":23,
					"material":3
				}
			]
		},
		{
			"name":"Cube.009",
			"primitives":[
				{
					"attributes":{
						"POSITION":24,
						"NORMAL":25,
						"TEXCOORD_0":26,
						"TEXCOORD_1":27
					},
					"indices":28,
					"material":4
				}
			]
		},
		{
			"name":"Plane.003",
			"primitives":[
				{
					"attributes":{
						"POSITION":29,
						"NORMAL":30,
						"TEXCOORD_0":31
					},
					"indices":11,
					"material":5
				}
			]
		},
		{
			"name":"Cube.001",
			"primitives":[
				{
					"attributes":{
						"POSITION":32,
						"NORMAL":33,
						"TEXCOORD_0":34
					},
					"indices":35,
					"material":6
				},
				{
					"attributes":{
						"POSITION":36,
						"NORMAL":37,
						"TEXCOORD_0":38
					},
					"indices":39,
					"material":7
				}
			]
		},
		{
			"name":"11512_WhiteTailedDeer_v2.005",
			"primitives":[
				{
					"attributes":{
						"POSITION":40,
						"NORMAL":41,
						"TEXCOORD_0":42
					},
					"indices":43,
					"material":8
				},
				{
					"attributes":{
						"POSITION":44,
						"NORMAL":45,
						"TEXCOORD_0":46
					},
					"indices":47,
					"material":9
				}
			]
		},
		{
			"name":"Mesh",
			"primitives":[
				{
					"attributes":{
						"POSITION":48,
						"NORMAL":49,
						"TEXCOORD_0":50,
						"TEXCOORD_1":51
					},
					"indices":52,
					"material":10
				}
			]
		},
		{
			"name":"Plane",
			"primitives":[
				{
					"attributes":{
						"POSITION":53,
						"NORMAL":54,
						"TEXCOORD_0":55
					},
					"indices":11,
					"material":11
				}
			]
		},
		{
			"name":"Plane.001",
			"primitives":[
				{
					"attributes":{
						"POSITION":56,
						"NORMAL":57,
						"TEXCOORD_0":58
					},
					"indices":11,
					"material":12
				}
			]
		},
		{
			"name":"Grass Generic Small",
			"primitives":[
				{
					"attributes":{
						"COLOR_0":59,
						"POSITION":60,
						"NORMAL":61,
						"TEXCOORD_0":62
					},
					"indices":63,
					"material":13
				}
			]
		},
		{
			"name":"Curve.008",
			"primitives":[
				{
					"attributes":{
						"POSITION":64,
						"NORMAL":65,
						"TEXCOORD_0":66
					},
					"indices":67,
					"material":14
				}
			]
		},
		{
			"name":"Curve.011",
			"primitives":[
				{
					"attributes":{
						"POSITION":68,
						"NORMAL":69,
						"TEXCOORD_0":70
					},
					"indices":71,
					"material":14
				}
			]
		},
		{
			"name":"Curve.012",
			"primitives":[
				{
					"attributes":{
						"POSITION":72,
						"NORMAL":73,
						"TEXCOORD_0":74
					},
					"indices":75,
					"material":14
				}
			]
		},
		{
			"name":"Curve.013",
			"primitives":[
				{
					"attributes":{
						"POSITION":76,
						"NORMAL":77,
						"TEXCOORD_0":78
					},
					"indices":79,
					"material":14
				}
			]
		},
		{
			"name":"Curve.014",
			"primitives":[
				{
					"attributes":{
						"POSITION":80,
						"NORMAL":81,
						"TEXCOORD_0":82
					},
					"indices":83,
					"material":14
				}
			]
		},
		{
			"name":"Curve.015",
			"primitives":[
				{
					"attributes":{
						"POSITION":84,
						"NORMAL":85,
						"TEXCOORD_0":86
					},
					"indices":87,
					"material":14
				}
			]
		},
		{
			"name":"Curve.017",
			"primitives":[
				{
					"attributes":{
						"POSITION":88,
						"NORMAL":89,
						"TEXCOORD_0":90
					},
					"indices":91,
					"material":14
				}
			]
		},
		{
			"name":"Curve.016",
			"primitives":[
				{
					"attributes":{
						"POSITION":92,
						"NORMAL":93,
						"TEXCOORD_0":94
					},
					"indices":95,
					"material":14
				}
			]
		},
		{
			"name":"Curve.010",
			"primitives":[
				{
					"attributes":{
						"POSITION":96,
						"NORMAL":97,
						"TEXCOORD_0":98
					},
					"indices":99,
					"material":14
				}
			]
		},
		{
			"name":"Curve.018",
			"primitives":[
				{
					"attributes":{
						"POSITION":100,
						"NORMAL":101,
						"TEXCOORD_0":102
					},
					"indices":103,
					"material":14
				}
			]
		},
		{
			"name":"Curve.019",
			"primitives":[
				{
					"attributes":{
						"POSITION":104,
						"NORMAL":105,
						"TEXCOORD_0":106
					},
					"indices":107,
					"material":14
				}
			]
		},
		{
			"name":"Curve.020",
			"primitives":[
				{
					"attributes":{
						"POSITION":108,
						"NORMAL":109,
						"TEXCOORD_0":110
					},
					"indices":111,
					"material":14
				}
			]
		},
		{
			"name":"Curve.021",
			"primitives":[
				{
					"attributes":{
						"POSITION":112,
						"NORMAL":113,
						"TEXCOORD_0":114
					},
					"indices":115,
					"material":14
				}
			]
		},
		{
			"name":"Curve.022",
			"primitives":[
				{
					"attributes":{
						"POSITION":116,
						"NORMAL":117,
						"TEXCOORD_0":118
					},
					"indices":119,
					"material":14
				}
			]
		},
		{
			"name":"Curve.023",
			"primitives":[
				{
					"attributes":{
						"POSITION":120,
						"NORMAL":121,
						"TEXCOORD_0":122
					},
					"indices":123,
					"material":14
				}
			]
		},
		{
			"name":"Knot_3_Mat.001",
			"primitives":[
				{
					"attributes":{
						"COLOR_0":124,
						"POSITION":125,
						"NORMAL":126,
						"TEXCOORD_0":127,
						"TEXCOORD_1":128
					},
					"indices":129,
					"material":15
				}
			]
		}
	],
	"textures":[
		{
			"sampler":0,
			"source":0
		},
		{
			"sampler":1,
			"source":1
		},
		{
			"sampler":1,
			"source":2
		},
		{
			"sampler":1,
			"source":3
		},
		{
			"sampler":1,
			"source":4
		},
		{
			"sampler":1,
			"source":5
		},
		{
			"sampler":1,
			"source":6
		},
		{
			"sampler":1,
			"source":7
		},
		{
			"sampler":1,
			"source":8
		},
		{
			"sampler":1,
			"source":9
		}
	],
	"images":[
		{
			"mimeType":"image/png",
			"name":"Silhouette",
			"uri":"Silhouette.png"
		},
		{
			"mimeType":"image/png",
			"name":"Image_0",
			"uri":"Image_0.png"
		},
		{
			"mimeType":"image/png",
			"name":"Image_1",
			"uri":"Image_1.png"
		},
		{
			"mimeType":"image/png",
			"name":"Image_2",
			"uri":"Image_2.png"
		},
		{
			"mimeType":"image/jpeg",
			"name":"Wood_normal",
			"uri":"Wood_normal.jpg"
		},
		{
			"mimeType":"image/jpeg",
			"name":"Wood_basecolor",
			"uri":"Wood_basecolor.jpg"
		},
		{
			"mimeType":"image/png",
			"name":"Wood_roughness",
			"uri":"Wood_roughness.png"
		},
		{
			"mimeType":"image/jpeg",
			"name":"Wood_Panels_03_normal",
			"uri":"Wood_Panels_03_normal.jpg"
		},
		{
			"mimeType":"image/jpeg",
			"name":"Wood_Panels_03_basecolor",
			"uri":"Wood_Panels_03_basecolor.jpg"
		},
		{
			"mimeType":"image/png",
			"name":"Wood_Panels_03_metallic-Wood_Panels_03_roughness",
			"uri":"Wood_Panels_03_metallic-Wood_Panels_03_roughness.png"
		}
	],
	"accessors":[
		{
			"bufferView":0,
			"componentType":5126,
			"count":72,
			"max":[
				16.05268096923828,
				11.301687240600586,
				36.9634895324707
			],
			"min":[
				-6.431845664978027,
				-3.8344767093658447,
				-37.59311294555664
			],
			"type":"VEC3"
		},
		{
			"bufferView":1,
			"componentType":5126,
			"count":72,
			"type":"VEC3"
		},
		{
			"bufferView":2,
			"componentType":5126,
			"count":72,
			"type":"VEC2"
		},
		{
			"bufferView":3,
			"componentType":5123,
			"count":108,
			"type":"SCALAR"
		},
		{
			"bufferView":4,
			"componentType":5126,
			"count":552,
			"max":[
				0.05722204968333244,
				0.003000000026077032,
				0.06459317356348038
			],
			"min":[
				-0.06315544992685318,
				-0.003000000026077032,
				-0.039637841284275055
			],
			"type":"VEC3"
		},
		{
			"bufferView":5,
			"componentType":5126,
			"count":552,
			"type":"VEC3"
		},
		{
			"bufferView":6,
			"componentType":5126,
			"count":552,
			"type":"VEC2"
		},
		{
			"bufferView":7,
			"componentType":5123,
			"count":2448,
			"type":"SCALAR"
		},
		{
			"bufferView":8,
			"componentType":5126,
			"count":4,
			"max":[
				4.174563407897949,
				1.9186673164367676,
				0.13234326243400574
			],
			"min":[
				4.174563407897949,
				-0.057153601199388504,
				-0.6246581077575684
			],
			"type":"VEC3"
		},
		{
			"bufferView":9,
			"componentType":5126,
			"count":4,
			"type":"VEC3"
		},
		{
			"bufferView":10,
			"componentType":5126,
			"count":4,
			"type":"VEC2"
		},
		{
			"bufferView":11,
			"componentType":5123,
			"count":6,
			"type":"SCALAR"
		},
		{
			"bufferView":12,
			"componentType":5126,
			"count":78,
			"max":[
				-4.083738327026367,
				0.5471502542495728,
				1.3060671091079712
			],
			"min":[
				-4.218583583831787,
				0.05822201073169708,
				-1.5700619220733643
			],
			"type":"VEC3"
		},
		{
			"bufferView":13,
			"componentType":5126,
			"count":78,
			"type":"VEC3"
		},
		{
			"bufferView":14,
			"componentType":5126,
			"count":78,
			"type":"VEC2"
		},
		{
			"bufferView":15,
			"componentType":5123,
			"count":288,
			"type":"SCALAR"
		},
		{
			"bufferView":16,
			"componentType":5126,
			"count":18684,
			"max":[
				-3.9621546268463135,
				1.3240618705749512,
				1.8658984899520874
			],
			"min":[
				-4.219913959503174,
				0.05373144894838333,
				1.3124045133590698
			],
			"type":"VEC3"
		},
		{
			"bufferView":17,
			"componentType":5126,
			"count":18684,
			"type":"VEC3"
		},
		{
			"bufferView":18,
			"componentType":5126,
			"count":18684,
			"type":"VEC2"
		},
		{
			"bufferView":19,
			"componentType":5123,
			"count":88203,
			"type":"SCALAR"
		},
		{
			"bufferView":20,
			"componentType":5126,
			"count":280,
			"max":[
				-3.9621546268463135,
				0.7399523854255676,
				1.864119291305542
			],
			"min":[
				-4.102701187133789,
				0.05110593140125275,
				1.3124045133590698
			],
			"type":"VEC3"
		},
		{
			"bufferView":21,
			"componentType":5126,
			"count":280,
			"type":"VEC3"
		},
		{
			"bufferView":22,
			"componentType":5126,
			"count":280,
			"type":"VEC2"
		},
		{
			"bufferView":23,
			"componentType":5123,
			"count":1023,
			"type":"SCALAR"
		},
		{
			"bufferView":24,
			"componentType":5126,
			"count":77901,
			"max":[
				3.8534555435180664,
				0.9353467226028442,
				-1.0792458057403564
			],
			"min":[
				-3.1294398307800293,
				-7.636845111846924e-08,
				-7.913947105407715
			],
			"type":"VEC3"
		},
		{
			"bufferView":25,
			"componentType":5126,
			"count":77901,
			"type":"VEC3"
		},
		{
			"bufferView":26,
			"componentType":5126,
			"count":77901,
			"type":"VEC2"
		},
		{
			"bufferView":27,
			"componentType":5126,
			"count":77901,
			"type":"VEC2"
		},
		{
			"bufferView":28,
			"componentType":5125,
			"count":313920,
			"type":"SCALAR"
		},
		{
			"bufferView":29,
			"componentType":5126,
			"count":4,
			"max":[
				1,
				0,
				1
			],
			"min":[
				-1,
				0,
				-1
			],
			"type":"VEC3"
		},
		{
			"bufferView":30,
			"componentType":5126,
			"count":4,
			"type":"VEC3"
		},
		{
			"bufferView":31,
			"componentType":5126,
			"count":4,
			"type":"VEC2"
		},
		{
			"bufferView":32,
			"componentType":5126,
			"count":46,
			"max":[
				-3.358389139175415,
				2.088376998901367,
				3.140287399291992
			],
			"min":[
				-5.798389434814453,
				0.08837711811065674,
				-3.333847761154175
			],
			"type":"VEC3"
		},
		{
			"bufferView":33,
			"componentType":5126,
			"count":46,
			"type":"VEC3"
		},
		{
			"bufferView":34,
			"componentType":5126,
			"count":46,
			"type":"VEC2"
		},
		{
			"bufferView":35,
			"componentType":5123,
			"count":102,
			"type":"SCALAR"
		},
		{
			"bufferView":36,
			"componentType":5126,
			"count":64,
			"max":[
				-3.358389139175415,
				2.088376998901367,
				3.140287399291992
			],
			"min":[
				-5.798389434814453,
				0.08837711811065674,
				-3.333847761154175
			],
			"type":"VEC3"
		},
		{
			"bufferView":37,
			"componentType":5126,
			"count":64,
			"type":"VEC3"
		},
		{
			"bufferView":38,
			"componentType":5126,
			"count":64,
			"type":"VEC2"
		},
		{
			"bufferView":39,
			"componentType":5123,
			"count":216,
			"type":"SCALAR"
		},
		{
			"bufferView":40,
			"componentType":5126,
			"count":19989,
			"max":[
				-1.753318428993225,
				1.2255580425262451,
				-12.717841148376465
			],
			"min":[
				-1.9412164688110352,
				0.8841444253921509,
				-13.186844825744629
			],
			"type":"VEC3"
		},
		{
			"bufferView":41,
			"componentType":5126,
			"count":19989,
			"type":"VEC3"
		},
		{
			"bufferView":42,
			"componentType":5126,
			"count":19989,
			"type":"VEC2"
		},
		{
			"bufferView":43,
			"componentType":5123,
			"count":114090,
			"type":"SCALAR"
		},
		{
			"bufferView":44,
			"componentType":5126,
			"count":630830,
			"max":[
				-1.8087189197540283,
				1.082879662513733,
				-12.83099365234375
			],
			"min":[
				-2.0734989643096924,
				0.7244794964790344,
				-13.073692321777344
			],
			"type":"VEC3"
		},
		{
			"bufferView":45,
			"componentType":5126,
			"count":630830,
			"type":"VEC3"
		},
		{
			"bufferView":46,
			"componentType":5126,
			"count":630830,
			"type":"VEC2"
		},
		{
			"bufferView":47,
			"componentType":5125,
			"count":1101660,
			"type":"SCALAR"
		},
		{
			"bufferView":48,
			"componentType":5126,
			"count":394,
			"max":[
				-1.7637202739715576,
				0.7548926472663879,
				-12.738664627075195
			],
			"min":[
				-2.058922052383423,
				0.01786741614341736,
				-13.169201850891113
			],
			"type":"VEC3"
		},
		{
			"bufferView":49,
			"componentType":5126,
			"count":394,
			"type":"VEC3"
		},
		{
			"bufferView":50,
			"componentType":5126,
			"count":394,
			"type":"VEC2"
		},
		{
			"bufferView":51,
			"componentType":5126,
			"count":394,
			"type":"VEC2"
		},
		{
			"bufferView":52,
			"componentType":5123,
			"count":852,
			"type":"SCALAR"
		},
		{
			"bufferView":53,
			"componentType":5126,
			"count":4,
			"max":[
				1,
				0,
				1
			],
			"min":[
				-1,
				0,
				-1
			],
			"type":"VEC3"
		},
		{
			"bufferView":54,
			"componentType":5126,
			"count":4,
			"type":"VEC3"
		},
		{
			"bufferView":55,
			"componentType":5126,
			"count":4,
			"type":"VEC2"
		},
		{
			"bufferView":56,
			"componentType":5126,
			"count":4,
			"max":[
				1,
				0,
				1
			],
			"min":[
				-1,
				0,
				-1
			],
			"type":"VEC3"
		},
		{
			"bufferView":57,
			"componentType":5126,
			"count":4,
			"type":"VEC3"
		},
		{
			"bufferView":58,
			"componentType":5126,
			"count":4,
			"type":"VEC2"
		},
		{
			"bufferView":59,
			"componentType":5123,
			"count":594,
			"normalized":true,
			"type":"VEC4"
		},
		{
			"bufferView":60,
			"componentType":5126,
			"count":594,
			"max":[
				0.9823910593986511,
				0.4966388940811157,
				0.7674774527549744
			],
			"min":[
				-1.001030445098877,
				-0.01977628469467163,
				-0.9405553936958313
			],
			"type":"VEC3"
		},
		{
			"bufferView":61,
			"componentType":5126,
			"count":594,
			"type":"VEC3"
		},
		{
			"bufferView":62,
			"componentType":5126,
			"count":594,
			"type":"VEC2"
		},
		{
			"bufferView":63,
			"componentType":5123,
			"count":1581,
			"type":"SCALAR"
		},
		{
			"bufferView":64,
			"componentType":5126,
			"count":4795,
			"max":[
				-4.61476469039917,
				3.401771068572998,
				17.391801834106445
			],
			"min":[
				-4.61476469039917,
				3.2882087230682373,
				15.81527042388916
			],
			"type":"VEC3"
		},
		{
			"bufferView":65,
			"componentType":5126,
			"count":4795,
			"type":"VEC3"
		},
		{
			"bufferView":66,
			"componentType":5126,
			"count":4795,
			"type":"VEC2"
		},
		{
			"bufferView":67,
			"componentType":5123,
			"count":10116,
			"type":"SCALAR"
		},
		{
			"bufferView":68,
			"componentType":5126,
			"count":5971,
			"max":[
				-4.61476469039917,
				2.838592052459717,
				17.397953033447266
			],
			"min":[
				-4.61476469039917,
				2.618943452835083,
				15.99454116821289
			],
			"type":"VEC3"
		},
		{
			"bufferView":69,
			"componentType":5126,
			"count":5971,
			"type":"VEC3"
		},
		{
			"bufferView":70,
			"componentType":5126,
			"count":5971,
			"type":"VEC2"
		},
		{
			"bufferView":71,
			"componentType":5123,
			"count":11358,
			"type":"SCALAR"
		},
		{
			"bufferView":72,
			"componentType":5126,
			"count":5134,
			"max":[
				-4.61476469039917,
				2.4441030025482178,
				17.391521453857422
			],
			"min":[
				-4.61476469039917,
				2.2235758304595947,
				16.586559295654297
			],
			"type":"VEC3"
		},
		{
			"bufferView":73,
			"componentType":5126,
			"count":5134,
			"type":"VEC3"
		},
		{
			"bufferView":74,
			"componentType":5126,
			"count":5134,
			"type":"VEC2"
		},
		{
			"bufferView":75,
			"componentType":5123,
			"count":9786,
			"type":"SCALAR"
		},
		{
			"bufferView":76,
			"componentType":5126,
			"count":6221,
			"max":[
				-4.61476469039917,
				2.0478568077087402,
				17.3853702545166
			],
			"min":[
				-4.61476469039917,
				1.8264185190200806,
				16.481983184814453
			],
			"type":"VEC3"
		},
		{
			"bufferView":77,
			"componentType":5126,
			"count":6221,
			"type":"VEC3"
		},
		{
			"bufferView":78,
			"componentType":5126,
			"count":6221,
			"type":"VEC2"
		},
		{
			"bufferView":79,
			"componentType":5123,
			"count":11862,
			"type":"SCALAR"
		},
		{
			"bufferView":80,
			"componentType":5126,
			"count":7339,
			"max":[
				-4.61476469039917,
				1.6524893045425415,
				17.397953033447266
			],
			"min":[
				-4.61476469039917,
				1.4328408241271973,
				16.390871047973633
			],
			"type":"VEC3"
		},
		{
			"bufferView":81,
			"componentType":5126,
			"count":7339,
			"type":"VEC3"
		},
		{
			"bufferView":82,
			"componentType":5126,
			"count":7339,
			"type":"VEC2"
		},
		{
			"bufferView":83,
			"componentType":5123,
			"count":14133,
			"type":"SCALAR"
		},
		{
			"bufferView":84,
			"componentType":5126,
			"count":8400,
			"max":[
				-4.61476469039917,
				1.258000373840332,
				17.397953033447266
			],
			"min":[
				-4.61476469039917,
				1.037473201751709,
				16.114055633544922
			],
			"type":"VEC3"
		},
		{
			"bufferView":85,
			"componentType":5126,
			"count":8400,
			"type":"VEC3"
		},
		{
			"bufferView":86,
			"componentType":5126,
			"count":8400,
			"type":"VEC2"
		},
		{
			"bufferView":87,
			"componentType":5123,
			"count":16236,
			"type":"SCALAR"
		},
		{
			"bufferView":88,
			"componentType":5126,
			"count":7102,
			"max":[
				-4.61476469039917,
				0.8626328706741333,
				17.391521453857422
			],
			"min":[
				-4.61476469039917,
				0.6421056985855103,
				16.312379837036133
			],
			"type":"VEC3"
		},
		{
			"bufferView":89,
			"componentType":5126,
			"count":7102,
			"type":"VEC3"
		},
		{
			"bufferView":90,
			"componentType":5126,
			"count":7102,
			"type":"VEC2"
		},
		{
			"bufferView":91,
			"componentType":5123,
			"count":13767,
			"type":"SCALAR"
		},
		{
			"bufferView":92,
			"componentType":5126,
			"count":5543,
			"max":[
				-4.61476469039917,
				0.4663867652416229,
				17.397953033447266
			],
			"min":[
				-4.61476469039917,
				0.24673812091350555,
				16.65802001953125
			],
			"type":"VEC3"
		},
		{
			"bufferView":93,
			"componentType":5126,
			"count":5543,
			"type":"VEC3"
		},
		{
			"bufferView":94,
			"componentType":5126,
			"count":5543,
			"type":"VEC2"
		},
		{
			"bufferView":95,
			"componentType":5123,
			"count":10803,
			"type":"SCALAR"
		},
		{
			"bufferView":96,
			"componentType":5126,
			"count":910,
			"max":[
				-4.61476469039917,
				2.822777271270752,
				15.61606502532959
			],
			"min":[
				-4.61476469039917,
				2.7454612255096436,
				15.450854301452637
			],
			"type":"VEC3"
		},
		{
			"bufferView":97,
			"componentType":5126,
			"count":910,
			"type":"VEC3"
		},
		{
			"bufferView":98,
			"componentType":5126,
			"count":910,
			"type":"VEC2"
		},
		{
			"bufferView":99,
			"componentType":5123,
			"count":1722,
			"type":"SCALAR"
		},
		{
			"bufferView":100,
			"componentType":5126,
			"count":1527,
			"max":[
				-4.61476469039917,
				2.4274096488952637,
				15.608757019042969
			],
			"min":[
				-4.61476469039917,
				2.351850748062134,
				15.446182250976562
			],
			"type":"VEC3"
		},
		{
			"bufferView":101,
			"componentType":5126,
			"count":1527,
			"type":"VEC3"
		},
		{
			"bufferView":102,
			"componentType":5126,
			"count":1527,
			"type":"VEC2"
		},
		{
			"bufferView":103,
			"componentType":5123,
			"count":2892,
			"type":"SCALAR"
		},
		{
			"bufferView":104,
			"componentType":5126,
			"count":1320,
			"max":[
				-4.61476469039917,
				2.0320422649383545,
				15.580077171325684
			],
			"min":[
				-4.61476469039917,
				1.9561673402786255,
				15.41926097869873
			],
			"type":"VEC3"
		},
		{
			"bufferView":105,
			"componentType":5126,
			"count":1320,
			"type":"VEC3"
		},
		{
			"bufferView":106,
			"componentType":5126,
			"count":1320,
			"type":"VEC2"
		},
		{
			"bufferView":107,
			"componentType":5123,
			"count":2430,
			"type":"SCALAR"
		},
		{
			"bufferView":108,
			"componentType":5126,
			"count":1080,
			"max":[
				-4.61476469039917,
				1.635796070098877,
				15.584455490112305
			],
			"min":[
				-4.61476469039917,
				1.5593583583831787,
				15.422760009765625
			],
			"type":"VEC3"
		},
		{
			"bufferView":109,
			"componentType":5126,
			"count":1080,
			"type":"VEC3"
		},
		{
			"bufferView":110,
			"componentType":5126,
			"count":1080,
			"type":"VEC2"
		},
		{
			"bufferView":111,
			"componentType":5123,
			"count":2016,
			"type":"SCALAR"
		},
		{
			"bufferView":112,
			"componentType":5126,
			"count":712,
			"max":[
				-4.61476469039917,
				1.2404285669326782,
				15.584455490112305
			],
			"min":[
				-4.61476469039917,
				1.1657480001449585,
				15.431548118591309
			],
			"type":"VEC3"
		},
		{
			"bufferView":113,
			"componentType":5126,
			"count":712,
			"type":"VEC3"
		},
		{
			"bufferView":114,
			"componentType":5126,
			"count":712,
			"type":"VEC2"
		},
		{
			"bufferView":115,
			"componentType":5123,
			"count":1209,
			"type":"SCALAR"
		},
		{
			"bufferView":116,
			"componentType":5126,
			"count":1012,
			"max":[
				-4.61476469039917,
				0.8459395170211792,
				15.58674430847168
			],
			"min":[
				-4.61476469039917,
				0.7703804969787598,
				15.42417049407959
			],
			"type":"VEC3"
		},
		{
			"bufferView":117,
			"componentType":5126,
			"count":1012,
			"type":"VEC3"
		},
		{
			"bufferView":118,
			"componentType":5126,
			"count":1012,
			"type":"VEC2"
		},
		{
			"bufferView":119,
			"componentType":5123,
			"count":1878,
			"type":"SCALAR"
		},
		{
			"bufferView":120,
			"componentType":5126,
			"count":377,
			"max":[
				-4.61476469039917,
				0.4496934413909912,
				15.556865692138672
			],
			"min":[
				-4.61476469039917,
				0.3750128746032715,
				15.432958602905273
			],
			"type":"VEC3"
		},
		{
			"bufferView":121,
			"componentType":5126,
			"count":377,
			"type":"VEC3"
		},
		{
			"bufferView":122,
			"componentType":5126,
			"count":377,
			"type":"VEC2"
		},
		{
			"bufferView":123,
			"componentType":5123,
			"count":633,
			"type":"SCALAR"
		},
		{
			"bufferView":124,
			"componentType":5123,
			"count":1976315,
			"normalized":true,
			"type":"VEC4"
		},
		{
			"bufferView":125,
			"componentType":5126,
			"count":1976315,
			"max":[
				-2.69956111907959,
				5.553976058959961,
				21.647579193115234
			],
			"min":[
				-7.306942939758301,
				-0.32050418853759766,
				11.644227981567383
			],
			"type":"VEC3"
		},
		{
			"bufferView":126,
			"componentType":5126,
			"count":1976315,
			"type":"VEC3"
		},
		{
			"bufferView":127,
			"componentType":5126,
			"count":1976315,
			"type":"VEC2"
		},
		{
			"bufferView":128,
			"componentType":5126,
			"count":1976315,
			"type":"VEC2"
		},
		{
			"bufferView":129,
			"componentType":5125,
			"count":7322790,
			"type":"SCALAR"
		}
	],
	"bufferViews":[
		{
			"buffer":0,
			"byteLength":864,
			"byteOffset":0,
			"target":34962
		},
		{
			"buffer":0,
			"byteLength":864,
			"byteOffset":864,
			"target":34962
		},
		{
			"buffer":0,
			"byteLength":576,
			"byteOffset":1728,
			"target":34962
		},
		{
			"buffer":0,
			"byteLength":216,
			"byteOffset":2304,
			"target":34963
		},
		{
			"buffer":0,
			"byteLength":6624,
			"byteOffset":2520,
			"target":34962
		},
		{
			"buffer":0,
			"byteLength":6624,
			"byteOffset":9144,
			"target":34962
		},
		{
			"buffer":0,
			"byteLength":4416,
			"byteOffset":15768,
			"target":34962
		},
		{
			"buffer":0,
			"byteLength":4896,
			"byteOffset":20184,
			"target":34963
		},
		{
			"buffer":0,
			"byteLength":48,
			"byteOffset":25080,
			"target":34962
		},
		{
			"buffer":0,
			"byteLength":48,
			"byteOffset":25128,
			"target":34962
		},
		{
			"buffer":0,
			"byteLength":32,
			"byteOffset":25176,
			"target":34962
		},
		{
			"buffer":0,
			"byteLength":12,
			"byteOffset":25208,
			"target":34963
		},
		{
			"buffer":0,
			"byteLength":936,
			"byteOffset":25220,
			"target":34962
		},
		{
			"buffer":0,
			"byteLength":936,
			"byteOffset":26156,
			"target":34962
		},
		{
			"buffer":0,
			"byteLength":624,
			"byteOffset":27092,
			"target":34962
		},
		{
			"buffer":0,
			"byteLength":576,
			"byteOffset":27716,
			"target":34963
		},
		{
			"buffer":0,
			"byteLength":224208,
			"byteOffset":28292,
			"target":34962
		},
		{
			"buffer":0,
			"byteLength":224208,
			"byteOffset":252500,
			"target":34962
		},
		{
			"buffer":0,
			"byteLength":149472,
			"byteOffset":476708,
			"target":34962
		},
		{
			"buffer":0,
			"byteLength":176406,
			"byteOffset":626180,
			"target":34963
		},
		{
			"buffer":0,
			"byteLength":3360,
			"byteOffset":802588,
			"target":34962
		},
		{
			"buffer":0,
			"byteLength":3360,
			"byteOffset":805948,
			"target":34962
		},
		{
			"buffer":0,
			"byteLength":2240,
			"byteOffset":809308,
			"target":34962
		},
		{
			"buffer":0,
			"byteLength":2046,
			"byteOffset":811548,
			"target":34963
		},
		{
			"buffer":0,
			"byteLength":934812,
			"byteOffset":813596,
			"target":34962
		},
		{
			"buffer":0,
			"byteLength":934812,
			"byteOffset":1748408,
			"target":34962
		},
		{
			"buffer":0,
			"byteLength":623208,
			"byteOffset":2683220,
			"target":34962
		},
		{
			"buffer":0,
			"byteLength":623208,
			"byteOffset":3306428,
			"target":34962
		},
		{
			"buffer":0,
			"byteLength":1255680,
			"byteOffset":3929636,
			"target":34963
		},
		{
			"buffer":0,
			"byteLength":48,
			"byteOffset":5185316,
			"target":34962
		},
		{
			"buffer":0,
			"byteLength":48,
			"byteOffset":5185364,
			"target":34962
		},
		{
			"buffer":0,
			"byteLength":32,
			"byteOffset":5185412,
			"target":34962
		},
		{
			"buffer":0,
			"byteLength":552,
			"byteOffset":5185444,
			"target":34962
		},
		{
			"buffer":0,
			"byteLength":552,
			"byteOffset":5185996,
			"target":34962
		},
		{
			"buffer":0,
			"byteLength":368,
			"byteOffset":5186548,
			"target":34962
		},
		{
			"buffer":0,
			"byteLength":204,
			"byteOffset":5186916,
			"target":34963
		},
		{
			"buffer":0,
			"byteLength":768,
			"byteOffset":5187120,
			"target":34962
		},
		{
			"buffer":0,
			"byteLength":768,
			"byteOffset":5187888,
			"target":34962
		},
		{
			"buffer":0,
			"byteLength":512,
			"byteOffset":5188656,
			"target":34962
		},
		{
			"buffer":0,
			"byteLength":432,
			"byteOffset":5189168,
			"target":34963
		},
		{
			"buffer":0,
			"byteLength":239868,
			"byteOffset":5189600,
			"target":34962
		},
		{
			"buffer":0,
			"byteLength":239868,
			"byteOffset":5429468,
			"target":34962
		},
		{
			"buffer":0,
			"byteLength":159912,
			"byteOffset":5669336,
			"target":34962
		},
		{
			"buffer":0,
			"byteLength":228180,
			"byteOffset":5829248,
			"target":34963
		},
		{
			"buffer":0,
			"byteLength":7569960,
			"byteOffset":6057428,
			"target":34962
		},
		{
			"buffer":0,
			"byteLength":7569960,
			"byteOffset":13627388,
			"target":34962
		},
		{
			"buffer":0,
			"byteLength":5046640,
			"byteOffset":21197348,
			"target":34962
		},
		{
			"buffer":0,
			"byteLength":4406640,
			"byteOffset":26243988,
			"target":34963
		},
		{
			"buffer":0,
			"byteLength":4728,
			"byteOffset":30650628,
			"target":34962
		},
		{
			"buffer":0,
			"byteLength":4728,
			"byteOffset":30655356,
			"target":34962
		},
		{
			"buffer":0,
			"byteLength":3152,
			"byteOffset":30660084,
			"target":34962
		},
		{
			"buffer":0,
			"byteLength":3152,
			"byteOffset":30663236,
			"target":34962
		},
		{
			"buffer":0,
			"byteLength":1704,
			"byteOffset":30666388,
			"target":34963
		},
		{
			"buffer":0,
			"byteLength":48,
			"byteOffset":30668092,
			"target":34962
		},
		{
			"buffer":0,
			"byteLength":48,
			"byteOffset":30668140,
			"target":34962
		},
		{
			"buffer":0,
			"byteLength":32,
			"byteOffset":30668188,
			"target":34962
		},
		{
			"buffer":0,
			"byteLength":48,
			"byteOffset":30668220,
			"target":34962
		},
		{
			"buffer":0,
			"byteLength":48,
			"byteOffset":30668268,
			"target":34962
		},
		{
			"buffer":0,
			"byteLength":32,
			"byteOffset":30668316,
			"target":34962
		},
		{
			"buffer":0,
			"byteLength":4752,
			"byteOffset":30668348,
			"target":34962
		},
		{
			"buffer":0,
			"byteLength":7128,
			"byteOffset":30673100,
			"target":34962
		},
		{
			"buffer":0,
			"byteLength":7128,
			"byteOffset":30680228,
			"target":34962
		},
		{
			"buffer":0,
			"byteLength":4752,
			"byteOffset":30687356,
			"target":34962
		},
		{
			"buffer":0,
			"byteLength":3162,
			"byteOffset":30692108,
			"target":34963
		},
		{
			"buffer":0,
			"byteLength":57540,
			"byteOffset":30695272,
			"target":34962
		},
		{
			"buffer":0,
			"byteLength":57540,
			"byteOffset":30752812,
			"target":34962
		},
		{
			"buffer":0,
			"byteLength":38360,
			"byteOffset":30810352,
			"target":34962
		},
		{
			"buffer":0,
			"byteLength":20232,
			"byteOffset":30848712,
			"target":34963
		},
		{
			"buffer":0,
			"byteLength":71652,
			"byteOffset":30868944,
			"target":34962
		},
		{
			"buffer":0,
			"byteLength":71652,
			"byteOffset":30940596,
			"target":34962
		},
		{
			"buffer":0,
			"byteLength":47768,
			"byteOffset":31012248,
			"target":34962
		},
		{
			"buffer":0,
			"byteLength":22716,
			"byteOffset":31060016,
			"target":34963
		},
		{
			"buffer":0,
			"byteLength":61608,
			"byteOffset":31082732,
			"target":34962
		},
		{
			"buffer":0,
			"byteLength":61608,
			"byteOffset":31144340,
			"target":34962
		},
		{
			"buffer":0,
			"byteLength":41072,
			"byteOffset":31205948,
			"target":34962
		},
		{
			"buffer":0,
			"byteLength":19572,
			"byteOffset":31247020,
			"target":34963
		},
		{
			"buffer":0,
			"byteLength":74652,
			"byteOffset":31266592,
			"target":34962
		},
		{
			"buffer":0,
			"byteLength":74652,
			"byteOffset":31341244,
			"target":34962
		},
		{
			"buffer":0,
			"byteLength":49768,
			"byteOffset":31415896,
			"target":34962
		},
		{
			"buffer":0,
			"byteLength":23724,
			"byteOffset":31465664,
			"target":34963
		},
		{
			"buffer":0,
			"byteLength":88068,
			"byteOffset":31489388,
			"target":34962
		},
		{
			"buffer":0,
			"byteLength":88068,
			"byteOffset":31577456,
			"target":34962
		},
		{
			"buffer":0,
			"byteLength":58712,
			"byteOffset":31665524,
			"target":34962
		},
		{
			"buffer":0,
			"byteLength":28266,
			"byteOffset":31724236,
			"target":34963
		},
		{
			"buffer":0,
			"byteLength":100800,
			"byteOffset":31752504,
			"target":34962
		},
		{
			"buffer":0,
			"byteLength":100800,
			"byteOffset":31853304,
			"target":34962
		},
		{
			"buffer":0,
			"byteLength":67200,
			"byteOffset":31954104,
			"target":34962
		},
		{
			"buffer":0,
			"byteLength":32472,
			"byteOffset":32021304,
			"target":34963
		},
		{
			"buffer":0,
			"byteLength":85224,
			"byteOffset":32053776,
			"target":34962
		},
		{
			"buffer":0,
			"byteLength":85224,
			"byteOffset":32139000,
			"target":34962
		},
		{
			"buffer":0,
			"byteLength":56816,
			"byteOffset":32224224,
			"target":34962
		},
		{
			"buffer":0,
			"byteLength":27534,
			"byteOffset":32281040,
			"target":34963
		},
		{
			"buffer":0,
			"byteLength":66516,
			"byteOffset":32308576,
			"target":34962
		},
		{
			"buffer":0,
			"byteLength":66516,
			"byteOffset":32375092,
			"target":34962
		},
		{
			"buffer":0,
			"byteLength":44344,
			"byteOffset":32441608,
			"target":34962
		},
		{
			"buffer":0,
			"byteLength":21606,
			"byteOffset":32485952,
			"target":34963
		},
		{
			"buffer":0,
			"byteLength":10920,
			"byteOffset":32507560,
			"target":34962
		},
		{
			"buffer":0,
			"byteLength":10920,
			"byteOffset":32518480,
			"target":34962
		},
		{
			"buffer":0,
			"byteLength":7280,
			"byteOffset":32529400,
			"target":34962
		},
		{
			"buffer":0,
			"byteLength":3444,
			"byteOffset":32536680,
			"target":34963
		},
		{
			"buffer":0,
			"byteLength":18324,
			"byteOffset":32540124,
			"target":34962
		},
		{
			"buffer":0,
			"byteLength":18324,
			"byteOffset":32558448,
			"target":34962
		},
		{
			"buffer":0,
			"byteLength":12216,
			"byteOffset":32576772,
			"target":34962
		},
		{
			"buffer":0,
			"byteLength":5784,
			"byteOffset":32588988,
			"target":34963
		},
		{
			"buffer":0,
			"byteLength":15840,
			"byteOffset":32594772,
			"target":34962
		},
		{
			"buffer":0,
			"byteLength":15840,
			"byteOffset":32610612,
			"target":34962
		},
		{
			"buffer":0,
			"byteLength":10560,
			"byteOffset":32626452,
			"target":34962
		},
		{
			"buffer":0,
			"byteLength":4860,
			"byteOffset":32637012,
			"target":34963
		},
		{
			"buffer":0,
			"byteLength":12960,
			"byteOffset":32641872,
			"target":34962
		},
		{
			"buffer":0,
			"byteLength":12960,
			"byteOffset":32654832,
			"target":34962
		},
		{
			"buffer":0,
			"byteLength":8640,
			"byteOffset":32667792,
			"target":34962
		},
		{
			"buffer":0,
			"byteLength":4032,
			"byteOffset":32676432,
			"target":34963
		},
		{
			"buffer":0,
			"byteLength":8544,
			"byteOffset":32680464,
			"target":34962
		},
		{
			"buffer":0,
			"byteLength":8544,
			"byteOffset":32689008,
			"target":34962
		},
		{
			"buffer":0,
			"byteLength":5696,
			"byteOffset":32697552,
			"target":34962
		},
		{
			"buffer":0,
			"byteLength":2418,
			"byteOffset":32703248,
			"target":34963
		},
		{
			"buffer":0,
			"byteLength":12144,
			"byteOffset":32705668,
			"target":34962
		},
		{
			"buffer":0,
			"byteLength":12144,
			"byteOffset":32717812,
			"target":34962
		},
		{
			"buffer":0,
			"byteLength":8096,
			"byteOffset":32729956,
			"target":34962
		},
		{
			"buffer":0,
			"byteLength":3756,
			"byteOffset":32738052,
			"target":34963
		},
		{
			"buffer":0,
			"byteLength":4524,
			"byteOffset":32741808,
			"target":34962
		},
		{
			"buffer":0,
			"byteLength":4524,
			"byteOffset":32746332,
			"target":34962
		},
		{
			"buffer":0,
			"byteLength":3016,
			"byteOffset":32750856,
			"target":34962
		},
		{
			"buffer":0,
			"byteLength":1266,
			"byteOffset":32753872,
			"target":34963
		},
		{
			"buffer":0,
			"byteLength":15810520,
			"byteOffset":32755140,
			"target":34962
		},
		{
			"buffer":0,
			"byteLength":23715780,
			"byteOffset":48565660,
			"target":34962
		},
		{
			"buffer":0,
			"byteLength":23715780,
			"byteOffset":72281440,
			"target":34962
		},
		{
			"buffer":0,
			"byteLength":15810520,
			"byteOffset":95997220,
			"target":34962
		},
		{
			"buffer":0,
			"byteLength":15810520,
			"byteOffset":111807740,
			"target":34962
		},
		{
			"buffer":0,
			"byteLength":29291160,
			"byteOffset":127618260,
			"target":34963
		}
	],
	"samplers":[
		{
			"magFilter":9729,
			"minFilter":9987,
			"wrapS":33071,
			"wrapT":33071
		},
		{
			"magFilter":9729,
			"minFilter":9987
		}
	],
	"buffers":[
		{
			"byteLength":156909420,
			"uri":"as.bin"
		}
	]
}
