<svg xmlns="http://www.w3.org/2000/svg" viewBox="0 0 1280 720"><defs><style>.cls-1{fill:#1d1d1b;}</style></defs><g id="Calque_40" data-name="Calque 40"><polygon points="569.69 332.67 592.19 332.67 592.45 376.91 545.21 301.71 517.06 301.71 517.06 410.68 542.53 410.68 542.53 338.09 589.44 410.68 617.92 410.68 617.92 321.36 617.92 301.71 569.68 301.71 569.69 332.67"/></g><g id="Calque_39" data-name="Calque 39"><polygon points="620.72 321.36 620.72 410.68 644.32 410.68 645.22 332.67 668.86 332.67 668.86 301.71 620.63 301.71 620.72 321.36"/></g><g id="Calque_38" data-name="Calque 38"><path d="M750.69,363.49q-4.19-3.44-11.23-4.34a27.76,27.76,0,0,0,7.61-3.56,26.49,26.49,0,0,0,8.63-9.52,27.5,27.5,0,0,0,3.17-13.35,29.64,29.64,0,0,0-18.44-28.54q-8.86-4-20.89-4h-48v109H695v-39.9H718.3q8.33,0,11.8,3t3.93,9.28l2,27.63H760l-2.78-31.31Q756.41,368.18,750.69,363.49ZM730.1,345.84q-4.71,3.92-13.18,3.92H695V319.83h21.13q9.11,0,13.88,3.76t4.79,11.13Q734.81,341.93,730.1,345.84Z"/></g><g id="Calque_37" data-name="Calque 37"><path d="M844.71,309.3q-11.88-7-28.69-7-16.65,0-28.61,7a46.25,46.25,0,0,0-18.35,19.79q-6.4,12.82-6.4,30.31t6.4,30.24a45.93,45.93,0,0,0,18.35,19.64q12,6.9,28.61,6.91t28.61-6.91A46,46,0,0,0,863,389.64q6.39-12.74,6.4-30.24T863,329.09A46.46,46.46,0,0,0,844.71,309.3Zm-3,70.21a27.48,27.48,0,0,1-10,12.66,27.89,27.89,0,0,1-15.81,4.37,26.19,26.19,0,0,1-25.53-17q-3.47-8.29-3.47-20.11t3.47-20.18a28.12,28.12,0,0,1,9.95-12.81A26.81,26.81,0,0,1,815.87,322a27.47,27.47,0,0,1,15.81,4.45,27.91,27.91,0,0,1,10,12.81q3.46,8.37,3.47,20.18T841.7,379.51Z"/></g><g id="Calque_36" data-name="Calque 36"><polygon points="895.54 389.5 895.54 300.19 872.1 300.19 872.1 409.15 945.98 409.15 945.98 389.5 895.54 389.5"/></g><g id="Calque_35" data-name="Calque 35"><path d="M490,306.32q-11.72-7.06-27.45-7.06-21.43,0-33.39,10.51a37.19,37.19,0,0,0-4.95,5.34,38.37,38.37,0,0,0-4.95-5.34q-12-10.5-33.39-10.51-15.74,0-27.46,7.06a46.8,46.8,0,0,0-18,19.87Q334,339,334,356.35q0,17.81,6.55,30.54a46.54,46.54,0,0,0,18.2,19.49,52.07,52.07,0,0,0,26.61,6.75q14.34,0,24.6-5.06a42.3,42.3,0,0,0,14.2-11.27,42.21,42.21,0,0,0,14.2,11.27q10.26,5.06,24.6,5.06a52.09,52.09,0,0,0,26.61-6.75,46.54,46.54,0,0,0,18.2-19.49q6.55-12.74,6.55-30.54,0-17.34-6.32-30.16A46.82,46.82,0,0,0,490,306.32Zm-3.16,69.9A28,28,0,0,1,477.33,389a24.33,24.33,0,0,1-14.65,4.45q-11.1,0-17.19-6.22c-4.07-4.14-6.65-10.1-7.68-17.46H410.5c-1,7.36-3.55,13.32-7.61,17.46s-9.79,6.22-17.2,6.22A24.35,24.35,0,0,1,371,389a28,28,0,0,1-9.48-12.82,53.61,53.61,0,0,1-3.32-19.87,55.15,55.15,0,0,1,3.24-19.8,28.5,28.5,0,0,1,9.41-13,24.3,24.3,0,0,1,15-4.61q10.17,0,16.35,5.76c4.11,3.83,6.95,9.85,8.19,16.7H438.1c1.24-6.85,4-12.87,8.08-16.7s9.56-5.76,16.35-5.76a24.3,24.3,0,0,1,15,4.61,28.57,28.57,0,0,1,9.41,13,55.15,55.15,0,0,1,3.24,19.8A53.82,53.82,0,0,1,486.82,376.22Z"/></g><g id="Calque_24" data-name="Calque 24"><path class="cls-1" d="M477.9,443.79V428.17h4.47l4,11.37,4-11.37h4.46v15.62h-3.34V433.67l-3.67,10.07H484.9l-3.66-10.07v10.12Z"/></g><g id="Calque_23" data-name="Calque 23"><path class="cls-1" d="M498.6,447.09v-2.47h1.56a1.68,1.68,0,0,0,.85-.16,1.11,1.11,0,0,0,.43-.58l.24-.69h-.9L496.64,432H500l2.71,8.11,2.53-8.11h3.36l-4.53,12.91a3.17,3.17,0,0,1-1.14,1.67,3.69,3.69,0,0,1-2.09.51Z"/></g><g id="Calque_22" data-name="Calque 22"><path class="cls-1" d="M509.49,434.46V432h8.3v2.46Zm5.44,9.33a3.72,3.72,0,0,1-2.69-.85,3.65,3.65,0,0,1-.86-2.69v-11h3.3v10.63a1.47,1.47,0,0,0,.37,1.16,1.61,1.61,0,0,0,1.09.31h1.65v2.47Z"/></g><g id="Calque_21" data-name="Calque 21"><path class="cls-1" d="M519.72,443.79V428.17H523v6.58h-.44a3.81,3.81,0,0,1,.69-1.7,3.25,3.25,0,0,1,1.3-1,4.34,4.34,0,0,1,1.71-.33,4,4,0,0,1,2.2.57,3.59,3.59,0,0,1,1.33,1.59,5.6,5.6,0,0,1,.45,2.31v7.59H527V437a3.85,3.85,0,0,0-.41-2,1.48,1.48,0,0,0-1.37-.66,2,2,0,0,0-1.59.68,3.15,3.15,0,0,0-.57,2.05v6.71Z"/></g><g id="Calque_20" data-name="Calque 20"><path class="cls-1" d="M538.22,444.05a6.21,6.21,0,0,1-3.14-.76,5.25,5.25,0,0,1-2.09-2.14,6.76,6.76,0,0,1-.75-3.26,6.63,6.63,0,0,1,.75-3.24,5.34,5.34,0,0,1,2.09-2.15,6.81,6.81,0,0,1,6.29,0,5.41,5.41,0,0,1,2.09,2.15,6.63,6.63,0,0,1,.75,3.24,6.76,6.76,0,0,1-.75,3.26,5.32,5.32,0,0,1-2.09,2.14A6.23,6.23,0,0,1,538.22,444.05Zm0-2.53a2.22,2.22,0,0,0,1.92-1,5.58,5.58,0,0,0,0-5.34,2.39,2.39,0,0,0-3.83,0,5.58,5.58,0,0,0,0,5.34A2.2,2.2,0,0,0,538.22,441.52Z"/></g><g id="Calque_19" data-name="Calque 19"><path class="cls-1" d="M549.44,443.79a3.3,3.3,0,0,1-2.26-.73,3,3,0,0,1-.82-2.35V428.17h3.3v12.19a1,1,0,0,0,.25.74,1,1,0,0,0,.7.22h.79v2.47Z"/></g><g id="Calque_18" data-name="Calque 18"><path class="cls-1" d="M558.38,444.05a6.23,6.23,0,0,1-3.15-.76,5.32,5.32,0,0,1-2.09-2.14,6.76,6.76,0,0,1-.75-3.26,6.63,6.63,0,0,1,.75-3.24,5.41,5.41,0,0,1,2.09-2.15,6.81,6.81,0,0,1,6.29,0,5.34,5.34,0,0,1,2.09,2.15,6.63,6.63,0,0,1,.75,3.24,6.76,6.76,0,0,1-.75,3.26,5.25,5.25,0,0,1-2.09,2.14A6.21,6.21,0,0,1,558.38,444.05Zm0-2.53a2.2,2.2,0,0,0,1.91-1,5.58,5.58,0,0,0,0-5.34,2.2,2.2,0,0,0-1.91-1,2.23,2.23,0,0,0-1.92,1,5.58,5.58,0,0,0,0,5.34A2.23,2.23,0,0,0,558.38,441.52Z"/></g><g id="Calque_17" data-name="Calque 17"><path class="cls-1" d="M571.69,447.35a8.2,8.2,0,0,1-2.83-.42,4.32,4.32,0,0,1-1.8-1.16,4.2,4.2,0,0,1-.94-1.72l3.39-.24a1.64,1.64,0,0,0,.67.9,2.75,2.75,0,0,0,1.51.33,2.65,2.65,0,0,0,1.81-.56,2.28,2.28,0,0,0,.63-1.79v-1.26a3.09,3.09,0,0,1-1.34,1.31,4.34,4.34,0,0,1-2.07.5,4.68,4.68,0,0,1-2.58-.72,4.73,4.73,0,0,1-1.74-2,7.51,7.51,0,0,1,0-6,4.92,4.92,0,0,1,1.73-2,4.51,4.51,0,0,1,2.54-.74,4,4,0,0,1,2.19.57,3.69,3.69,0,0,1,1.36,1.52V432h3.23v10.62a4.46,4.46,0,0,1-.73,2.63,4.32,4.32,0,0,1-2,1.57A8,8,0,0,1,571.69,447.35Zm0-6.56a2.17,2.17,0,0,0,1.82-.87,4,4,0,0,0,.67-2.45,4.77,4.77,0,0,0-.3-1.78,2.39,2.39,0,0,0-.85-1.14,2.24,2.24,0,0,0-1.34-.4,2.15,2.15,0,0,0-1.84.9,4,4,0,0,0-.66,2.42,3.86,3.86,0,0,0,.68,2.43A2.15,2.15,0,0,0,571.66,440.79Z"/></g><g id="Calque_16" data-name="Calque 16"><path class="cls-1" d="M580.11,430.54V427.9h3.41v2.64Zm.07,13.25V432h3.3v11.79Z"/></g><g id="Calque_15" data-name="Calque 15"><path class="cls-1" d="M591.44,444.05a6.15,6.15,0,0,1-3.13-.76,5.21,5.21,0,0,1-2.07-2.14,6.88,6.88,0,0,1-.74-3.26,6.74,6.74,0,0,1,.74-3.24,5.33,5.33,0,0,1,2.06-2.15,6.12,6.12,0,0,1,3.12-.77,5.94,5.94,0,0,1,3.06.77,5.23,5.23,0,0,1,2,2.2,7.49,7.49,0,0,1,.72,3.41v.66h-8.3a3.05,3.05,0,0,0,.76,2.09,2.87,2.87,0,0,0,3.23.33,1.89,1.89,0,0,0,.81-1.08l3.32.2a4.59,4.59,0,0,1-2,2.75A6.44,6.44,0,0,1,591.44,444.05Zm-2.53-7.3h4.91a2.82,2.82,0,0,0-.72-1.94,2.31,2.31,0,0,0-1.68-.64,2.35,2.35,0,0,0-1.71.67A3.14,3.14,0,0,0,588.91,436.75Z"/></g><g id="Calque_14" data-name="Calque 14"><path class="cls-1" d="M604.27,444.05a7.82,7.82,0,0,1-3.06-.52,4.3,4.3,0,0,1-1.88-1.4,4,4,0,0,1-.74-2.06l3.35-.11a2.1,2.1,0,0,0,.7,1.3,2.48,2.48,0,0,0,1.63.46,2.76,2.76,0,0,0,1.37-.29,1,1,0,0,0,.5-.88,1,1,0,0,0-.18-.62,1.39,1.39,0,0,0-.69-.44,8.14,8.14,0,0,0-1.53-.34,15.46,15.46,0,0,1-2.93-.77,2.81,2.81,0,0,1-1.93-2.87,3.3,3.3,0,0,1,1.31-2.73,6.17,6.17,0,0,1,3.92-1,6.68,6.68,0,0,1,2.81.53,4.28,4.28,0,0,1,1.76,1.44,4.64,4.64,0,0,1,.78,2.08l-3.32.13a2.28,2.28,0,0,0-.34-1,2.14,2.14,0,0,0-.7-.64,2.07,2.07,0,0,0-1-.23,2.13,2.13,0,0,0-1.35.37,1.13,1.13,0,0,0-.47.95,1.14,1.14,0,0,0,.21.72,1.48,1.48,0,0,0,.69.45,6,6,0,0,0,1.3.28,12.57,12.57,0,0,1,3,.74,3.56,3.56,0,0,1,1.59,1.18,3,3,0,0,1,.49,1.74,2.9,2.9,0,0,1-.66,1.93,4.09,4.09,0,0,1-1.84,1.21A8.25,8.25,0,0,1,604.27,444.05Z"/></g><g id="Calque_13" data-name="Calque 13"><path class="cls-1" d="M622.15,444.05a6.21,6.21,0,0,1-3.14-.76,5.25,5.25,0,0,1-2.09-2.14,6.76,6.76,0,0,1-.75-3.26,6.63,6.63,0,0,1,.75-3.24A5.34,5.34,0,0,1,619,432.5a6.81,6.81,0,0,1,6.29,0,5.41,5.41,0,0,1,2.09,2.15,6.63,6.63,0,0,1,.75,3.24,6.76,6.76,0,0,1-.75,3.26,5.32,5.32,0,0,1-2.09,2.14A6.23,6.23,0,0,1,622.15,444.05Zm0-2.53a2.22,2.22,0,0,0,1.92-1,5.58,5.58,0,0,0,0-5.34,2.39,2.39,0,0,0-3.83,0,5.58,5.58,0,0,0,0,5.34A2.2,2.2,0,0,0,622.15,441.52Z"/></g><g id="Calque_12" data-name="Calque 12"><path class="cls-1" d="M629.3,434.9v-2.46h8v2.46Zm1.72,8.89v-12a3.72,3.72,0,0,1,1-2.72,4,4,0,0,1,2.94-.95h2.51v2.46h-1.8a1.29,1.29,0,0,0-1,.34,1.48,1.48,0,0,0-.31,1v11.79Z"/></g><g id="Calque_11" data-name="Calque 11"><path class="cls-1" d="M644.53,430.54V427.9h3.41v2.64Zm.06,13.25V432h3.3v11.79Z"/></g><g id="Calque_10" data-name="Calque 10"><path class="cls-1" d="M650.93,443.79V432h3l.11,2.83-.31-.13a4.59,4.59,0,0,1,.74-1.61,3.53,3.53,0,0,1,1.2-1,3.45,3.45,0,0,1,1.54-.35,3.33,3.33,0,0,1,2.38.86,4,4,0,0,1,1.18,2.31l-.42,0a4.69,4.69,0,0,1,.7-1.75,3.32,3.32,0,0,1,1.22-1.08,3.59,3.59,0,0,1,1.63-.36,4.15,4.15,0,0,1,2.11.51,3.37,3.37,0,0,1,1.36,1.5,5.67,5.67,0,0,1,.49,2.46v7.59h-3.3v-6.67a4.1,4.1,0,0,0-.42-2.08,1.48,1.48,0,0,0-1.37-.69,1.59,1.59,0,0,0-1,.33,2.15,2.15,0,0,0-.65,1,4.48,4.48,0,0,0-.23,1.53v6.62h-3v-6.62a4.49,4.49,0,0,0-.39-2.09,1.43,1.43,0,0,0-1.37-.73,1.62,1.62,0,0,0-1,.33,2,2,0,0,0-.65,1,4.56,4.56,0,0,0-.22,1.52v6.62Z"/></g><g id="Calque_9" data-name="Calque 9"><path class="cls-1" d="M670.38,447.09V432h3.17l.06,2.48-.26-.11a3.81,3.81,0,0,1,1.43-2,4,4,0,0,1,2.31-.68,4.53,4.53,0,0,1,2.75.81,5.14,5.14,0,0,1,1.66,2.22,9,9,0,0,1,0,6.25,5.05,5.05,0,0,1-1.67,2.23,4.56,4.56,0,0,1-2.76.81,4.09,4.09,0,0,1-1.61-.32,3.77,3.77,0,0,1-1.29-.89,3.41,3.41,0,0,1-.78-1.36l.29-.18v5.79Zm5.78-5.57a2.12,2.12,0,0,0,1.84-1,5.62,5.62,0,0,0,0-5.32,2.12,2.12,0,0,0-1.84-1,2.23,2.23,0,0,0-1.33.41,2.57,2.57,0,0,0-.86,1.22,7,7,0,0,0,0,4,2.52,2.52,0,0,0,.86,1.22A2.17,2.17,0,0,0,676.16,441.52Z"/></g><g id="Calque_8" data-name="Calque 8"><path class="cls-1" d="M689.45,444.05a6.21,6.21,0,0,1-3.14-.76,5.19,5.19,0,0,1-2.09-2.14,6.76,6.76,0,0,1-.75-3.26,6.63,6.63,0,0,1,.75-3.24,5.28,5.28,0,0,1,2.09-2.15,6.22,6.22,0,0,1,3.14-.77,6.28,6.28,0,0,1,3.15.77,5.41,5.41,0,0,1,2.09,2.15,6.63,6.63,0,0,1,.75,3.24,6.76,6.76,0,0,1-.75,3.26,5.32,5.32,0,0,1-2.09,2.14A6.28,6.28,0,0,1,689.45,444.05Zm0-2.53a2.23,2.23,0,0,0,1.92-1,5.58,5.58,0,0,0,0-5.34,2.23,2.23,0,0,0-1.92-1,2.2,2.2,0,0,0-1.91,1,5.58,5.58,0,0,0,0,5.34A2.2,2.2,0,0,0,689.45,441.52Z"/></g><g id="Calque_7" data-name="Calque 7"><path class="cls-1" d="M702.52,444.05a7.82,7.82,0,0,1-3.06-.52,4.3,4.3,0,0,1-1.88-1.4,4,4,0,0,1-.74-2.06l3.35-.11a2.1,2.1,0,0,0,.7,1.3,2.48,2.48,0,0,0,1.63.46,2.74,2.74,0,0,0,1.37-.29,1,1,0,0,0,.5-.88,1,1,0,0,0-.18-.62,1.35,1.35,0,0,0-.69-.44,7.77,7.77,0,0,0-1.53-.34,15.12,15.12,0,0,1-2.92-.77,3.1,3.1,0,0,1-1.5-1.15,3.21,3.21,0,0,1-.44-1.72,3.33,3.33,0,0,1,1.31-2.73,6.19,6.19,0,0,1,3.93-1,6.63,6.63,0,0,1,2.8.53,4.21,4.21,0,0,1,1.76,1.44,4.64,4.64,0,0,1,.78,2.08l-3.32.13a2.16,2.16,0,0,0-.34-1,2.21,2.21,0,0,0-.69-.64,2.53,2.53,0,0,0-2.37.14,1.13,1.13,0,0,0-.47.95,1.14,1.14,0,0,0,.21.72,1.53,1.53,0,0,0,.69.45,6,6,0,0,0,1.3.28,12.57,12.57,0,0,1,3,.74,3.66,3.66,0,0,1,1.6,1.18,3,3,0,0,1,.48,1.74,2.9,2.9,0,0,1-.66,1.93,4.09,4.09,0,0,1-1.84,1.21A8.25,8.25,0,0,1,702.52,444.05Z"/></g><g id="Calque_6" data-name="Calque 6"><path class="cls-1" d="M714.86,444.05a7.82,7.82,0,0,1-3.06-.52,4.35,4.35,0,0,1-1.88-1.4,3.88,3.88,0,0,1-.73-2.06l3.34-.11a2.15,2.15,0,0,0,.7,1.3,2.48,2.48,0,0,0,1.63.46,2.78,2.78,0,0,0,1.38-.29.94.94,0,0,0,.49-.88,1.08,1.08,0,0,0-.17-.62,1.38,1.38,0,0,0-.7-.44,7.77,7.77,0,0,0-1.53-.34,15.32,15.32,0,0,1-2.92-.77,3.15,3.15,0,0,1-1.5-1.15,3.21,3.21,0,0,1-.44-1.72,3.33,3.33,0,0,1,1.31-2.73,6.19,6.19,0,0,1,3.93-1,6.63,6.63,0,0,1,2.8.53,4.15,4.15,0,0,1,1.76,1.44,4.64,4.64,0,0,1,.78,2.08l-3.32.13a2.16,2.16,0,0,0-.34-1,2,2,0,0,0-.69-.64,2.12,2.12,0,0,0-1-.23,2.16,2.16,0,0,0-1.36.37,1.25,1.25,0,0,0-.26,1.67,1.53,1.53,0,0,0,.69.45,6.13,6.13,0,0,0,1.3.28,12.57,12.57,0,0,1,3,.74,3.66,3.66,0,0,1,1.6,1.18,3,3,0,0,1,.48,1.74,2.9,2.9,0,0,1-.66,1.93,4.12,4.12,0,0,1-1.83,1.21A8.36,8.36,0,0,1,714.86,444.05Z"/></g><g id="Calque_5" data-name="Calque 5"><path class="cls-1" d="M722.1,430.54V427.9h3.41v2.64Zm.07,13.25V432h3.3v11.79Z"/></g><g id="Calque_4" data-name="Calque 4"><path class="cls-1" d="M734.82,444.05a4.13,4.13,0,0,1-2.15-.53,3.65,3.65,0,0,1-1.42-1.47l-.06,1.74H728V428.17h3.3v5.5a3.9,3.9,0,0,1,1.36-1.38,4,4,0,0,1,2.12-.56,4.42,4.42,0,0,1,2.59.76,5,5,0,0,1,1.71,2.14,9.16,9.16,0,0,1,0,6.52,4.9,4.9,0,0,1-1.71,2.14A4.42,4.42,0,0,1,734.82,444.05Zm-.93-2.53a2.07,2.07,0,0,0,1.77-1,4.54,4.54,0,0,0,.67-2.67,4.66,4.66,0,0,0-.66-2.67,2,2,0,0,0-1.76-1,2.25,2.25,0,0,0-1.39.43,2.56,2.56,0,0,0-.88,1.24,5.73,5.73,0,0,0-.3,2,5.61,5.61,0,0,0,.3,1.94,2.59,2.59,0,0,0,.88,1.25A2.16,2.16,0,0,0,733.89,441.52Z"/></g><g id="Calque_3" data-name="Calque 3"><path class="cls-1" d="M745,443.79a3.31,3.31,0,0,1-2.27-.73,3,3,0,0,1-.81-2.35V428.17h3.3v12.19a1,1,0,0,0,.24.74,1,1,0,0,0,.7.22h.8v2.47Z"/></g><g id="Calque_2" data-name="Calque 2"><path class="cls-1" d="M753.85,444.05a6.19,6.19,0,0,1-3.14-.76,5.21,5.21,0,0,1-2.07-2.14,6.88,6.88,0,0,1-.73-3.26,6.74,6.74,0,0,1,.73-3.24,5.33,5.33,0,0,1,2.06-2.15,6.12,6.12,0,0,1,3.12-.77,5.89,5.89,0,0,1,3.06.77,5.11,5.11,0,0,1,2,2.2,7.49,7.49,0,0,1,.72,3.41v.66h-8.29a3,3,0,0,0,.76,2.09,2.47,2.47,0,0,0,1.83.68,2.55,2.55,0,0,0,1.4-.35,1.92,1.92,0,0,0,.8-1.08l3.32.2a4.58,4.58,0,0,1-1.95,2.75A6.44,6.44,0,0,1,753.85,444.05Zm-2.53-7.3h4.9a2.82,2.82,0,0,0-.71-1.94,2.52,2.52,0,0,0-3.39,0A3,3,0,0,0,751.32,436.75Z"/></g></svg>