{
	"asset":{
		"generator":"Khronos glTF Blender I/O v3.6.27",
		"version":"2.0"
	},
	"scene":0,
	"scenes":[
		{
			"name":"Scene",
			"nodes":[
				0,
				1
			]
		}
	],
	"nodes":[
		{
			"mesh":0,
			"name":"Text",
			"rotation":[
				0.4005097448825836,
				-0.5827451944351196,
				0.5827451944351196,
				0.40050971508026123
			]
		},
		{
			"mesh":1,
			"name":"Cube",
			"rotation":[
				0,
				0.9996573328971863,
				0,
				0.02617696113884449
			],
			"translation":[
				0,
				-0.17000000178813934,
				-4.309999942779541
			]
		}
	],
	"animations":[
		{
			"channels":[
				{
					"sampler":0,
					"target":{
						"node":0,
						"path":"rotation"
					}
				}
			],
			"name":"TextAction.003",
			"samplers":[
				{
					"input":8,
					"interpolation":"LINEAR",
					"output":9
				}
			]
		}
	],
	"meshes":[
		{
			"name":"Text.001",
			"primitives":[
				{
					"attributes":{
						"POSITION":0,
						"NORMAL":1,
						"TEXCOORD_0":2
					},
					"indices":3
				}
			]
		},
		{
			"name":"Cube.004",
			"primitives":[
				{
					"attributes":{
						"POSITION":4,
						"NORMAL":5,
						"TEXCOORD_0":6
					},
					"indices":7
				}
			]
		}
	],
	"accessors":[
		{
			"bufferView":0,
			"componentType":5126,
			"count":854,
			"max":[
				0.970416784286499,
				0.019999999552965164,
				0.30916666984558105
			],
			"min":[
				-0.9704166650772095,
				-0.019999999552965164,
				-0.30916666984558105
			],
			"type":"VEC3"
		},
		{
			"bufferView":1,
			"componentType":5126,
			"count":854,
			"type":"VEC3"
		},
		{
			"bufferView":2,
			"componentType":5126,
			"count":854,
			"type":"VEC2"
		},
		{
			"bufferView":3,
			"componentType":5123,
			"count":2460,
			"type":"SCALAR"
		},
		{
			"bufferView":4,
			"componentType":5126,
			"count":24,
			"max":[
				1,
				1,
				1
			],
			"min":[
				-1,
				-1,
				-1
			],
			"type":"VEC3"
		},
		{
			"bufferView":5,
			"componentType":5126,
			"count":24,
			"type":"VEC3"
		},
		{
			"bufferView":6,
			"componentType":5126,
			"count":24,
			"type":"VEC2"
		},
		{
			"bufferView":7,
			"componentType":5123,
			"count":36,
			"type":"SCALAR"
		},
		{
			"bufferView":8,
			"componentType":5126,
			"count":99,
			"max":[
				4.125
			],
			"min":[
				0.041666666666666664
			],
			"type":"SCALAR"
		},
		{
			"bufferView":9,
			"componentType":5126,
			"count":99,
			"type":"VEC4"
		}
	],
	"bufferViews":[
		{
			"buffer":0,
			"byteLength":10248,
			"byteOffset":0,
			"target":34962
		},
		{
			"buffer":0,
			"byteLength":10248,
			"byteOffset":10248,
			"target":34962
		},
		{
			"buffer":0,
			"byteLength":6832,
			"byteOffset":20496,
			"target":34962
		},
		{
			"buffer":0,
			"byteLength":4920,
			"byteOffset":27328,
			"target":34963
		},
		{
			"buffer":0,
			"byteLength":288,
			"byteOffset":32248,
			"target":34962
		},
		{
			"buffer":0,
			"byteLength":288,
			"byteOffset":32536,
			"target":34962
		},
		{
			"buffer":0,
			"byteLength":192,
			"byteOffset":32824,
			"target":34962
		},
		{
			"buffer":0,
			"byteLength":72,
			"byteOffset":33016,
			"target":34963
		},
		{
			"buffer":0,
			"byteLength":396,
			"byteOffset":33088
		},
		{
			"buffer":0,
			"byteLength":1584,
			"byteOffset":33484
		}
	],
	"buffers":[
		{
			"byteLength":35068,
			"uri":"data:application/octet-stream;base64,"
		}
	]
}
