{
	"asset":{
		"generator":"Khronos glTF Blender I/O v3.6.27",
		"version":"2.0"
	},
	"extensionsUsed":[
		"KHR_materials_emissive_strength"
	],
	"scene":0,
	"scenes":[
		{
			"name":"Scene",
			"nodes":[
				0,
				1,
				2,
				3,
				4,
				5
			]
		}
	],
	"nodes":[
		{
			"mesh":0,
			"name":"Cube",
			"rotation":[
				0.6021214127540588,
				-0.7502977848052979,
				0.1930069774389267,
				0.19300615787506104
			],
			"translation":[
				0,
				-0.43000006675720215,
				0
			]
		},
		{
			"mesh":1,
			"name":"Plane"
		},
		{
			"mesh":2,
			"name":"fond",
			"translation":[
				8.4838228225708,
				0,
				0
			]
		},
		{
			"mesh":3,
			"name":"Text",
			"rotation":[
				0.7071068286895752,
				0,
				0,
				0.7071068286895752
			],
			"scale":[
				5,
				5,
				5
			],
			"translation":[
				-9.450660705566406,
				-7.249999523162842,
				0.019999999552965164
			]
		},
		{
			"mesh":4,
			"name":"c2",
			"rotation":[
				0.4641393721103668,
				-0.7615689635276794,
				-0.14216585457324982,
				0.429390549659729
			],
			"translation":[
				3.8329524993896484,
				-0.43000006675720215,
				0
			]
		},
		{
			"mesh":5,
			"name":"c3",
			"rotation":[
				0.43529653549194336,
				-0.7953033447265625,
				0.0932285487651825,
				0.41148272156715393
			],
			"scale":[
				1.458616852760315,
				1.458616852760315,
				1.458616852760315
			],
			"translation":[
				-2.61651611328125,
				0.48713040351867676,
				-1.6188313961029053
			]
		}
	],
	"animations":[
		{
			"channels":[
				{
					"sampler":0,
					"target":{
						"node":0,
						"path":"translation"
					}
				},
				{
					"sampler":1,
					"target":{
						"node":0,
						"path":"rotation"
					}
				},
				{
					"sampler":2,
					"target":{
						"node":0,
						"path":"scale"
					}
				}
			],
			"name":"CubeAction",
			"samplers":[
				{
					"input":21,
					"interpolation":"LINEAR",
					"output":22
				},
				{
					"input":21,
					"interpolation":"LINEAR",
					"output":23
				},
				{
					"input":21,
					"interpolation":"LINEAR",
					"output":24
				}
			]
		},
		{
			"channels":[
				{
					"sampler":0,
					"target":{
						"node":1,
						"path":"translation"
					}
				},
				{
					"sampler":1,
					"target":{
						"node":1,
						"path":"rotation"
					}
				},
				{
					"sampler":2,
					"target":{
						"node":1,
						"path":"scale"
					}
				}
			],
			"name":"PlaneAction",
			"samplers":[
				{
					"input":25,
					"interpolation":"LINEAR",
					"output":26
				},
				{
					"input":25,
					"interpolation":"LINEAR",
					"output":27
				},
				{
					"input":28,
					"interpolation":"STEP",
					"output":29
				}
			]
		},
		{
			"channels":[
				{
					"sampler":0,
					"target":{
						"node":2,
						"path":"translation"
					}
				},
				{
					"sampler":1,
					"target":{
						"node":2,
						"path":"rotation"
					}
				},
				{
					"sampler":2,
					"target":{
						"node":2,
						"path":"scale"
					}
				}
			],
			"name":"fondAction",
			"samplers":[
				{
					"input":30,
					"interpolation":"LINEAR",
					"output":31
				},
				{
					"input":32,
					"interpolation":"STEP",
					"output":33
				},
				{
					"input":32,
					"interpolation":"STEP",
					"output":34
				}
			]
		},
		{
			"channels":[
				{
					"sampler":0,
					"target":{
						"node":3,
						"path":"translation"
					}
				},
				{
					"sampler":1,
					"target":{
						"node":3,
						"path":"scale"
					}
				}
			],
			"name":"TextAction",
			"samplers":[
				{
					"input":35,
					"interpolation":"LINEAR",
					"output":36
				},
				{
					"input":37,
					"interpolation":"STEP",
					"output":38
				}
			]
		},
		{
			"channels":[
				{
					"sampler":0,
					"target":{
						"node":4,
						"path":"translation"
					}
				},
				{
					"sampler":1,
					"target":{
						"node":4,
						"path":"rotation"
					}
				},
				{
					"sampler":2,
					"target":{
						"node":4,
						"path":"scale"
					}
				}
			],
			"name":"CubeAction.001",
			"samplers":[
				{
					"input":39,
					"interpolation":"LINEAR",
					"output":40
				},
				{
					"input":39,
					"interpolation":"LINEAR",
					"output":41
				},
				{
					"input":39,
					"interpolation":"LINEAR",
					"output":42
				}
			]
		},
		{
			"channels":[
				{
					"sampler":0,
					"target":{
						"node":5,
						"path":"translation"
					}
				},
				{
					"sampler":1,
					"target":{
						"node":5,
						"path":"rotation"
					}
				},
				{
					"sampler":2,
					"target":{
						"node":5,
						"path":"scale"
					}
				}
			],
			"name":"CubeAction.002",
			"samplers":[
				{
					"input":43,
					"interpolation":"LINEAR",
					"output":44
				},
				{
					"input":43,
					"interpolation":"LINEAR",
					"output":45
				},
				{
					"input":43,
					"interpolation":"LINEAR",
					"output":46
				}
			]
		}
	],
	"materials":[
		{
			"doubleSided":true,
			"name":"Material",
			"pbrMetallicRoughness":{
				"metallicFactor":0.8036254048347473,
				"roughnessFactor":0
			}
		},
		{
			"doubleSided":true,
			"name":"Material.001",
			"pbrMetallicRoughness":{
				"metallicFactor":0,
				"roughnessFactor":0.5
			}
		},
		{
			"doubleSided":true,
			"name":"Material.002",
			"pbrMetallicRoughness":{
				"metallicFactor":0,
				"roughnessFactor":0.5
			}
		},
		{
			"doubleSided":true,
			"emissiveFactor":[
				1,
				1,
				1
			],
			"extensions":{
				"KHR_materials_emissive_strength":{
					"emissiveStrength":5.399999618530273
				}
			},
			"name":"Material.003",
			"pbrMetallicRoughness":{
				"baseColorFactor":[
					0,
					0,
					0,
					1
				]
			}
		},
		{
			"doubleSided":true,
			"name":"Material.006",
			"pbrMetallicRoughness":{
				"metallicFactor":0.8036254048347473,
				"roughnessFactor":0
			}
		}
	],
	"meshes":[
		{
			"name":"Cube",
			"primitives":[
				{
					"attributes":{
						"POSITION":0,
						"NORMAL":1,
						"TEXCOORD_0":2
					},
					"indices":3,
					"material":0
				}
			]
		},
		{
			"name":"Plane",
			"primitives":[
				{
					"attributes":{
						"POSITION":4,
						"NORMAL":5,
						"TEXCOORD_0":6
					},
					"indices":7,
					"material":1
				}
			]
		},
		{
			"name":"Plane.001",
			"primitives":[
				{
					"attributes":{
						"POSITION":8,
						"NORMAL":9,
						"TEXCOORD_0":10
					},
					"indices":7,
					"material":2
				}
			]
		},
		{
			"name":"Text",
			"primitives":[
				{
					"attributes":{
						"POSITION":11,
						"NORMAL":12,
						"TEXCOORD_0":13
					},
					"indices":14,
					"material":3
				}
			]
		},
		{
			"name":"Cube.001",
			"primitives":[
				{
					"attributes":{
						"POSITION":15,
						"NORMAL":16,
						"TEXCOORD_0":17
					},
					"indices":3,
					"material":4
				}
			]
		},
		{
			"name":"Cube.002",
			"primitives":[
				{
					"attributes":{
						"POSITION":18,
						"NORMAL":19,
						"TEXCOORD_0":20
					},
					"indices":3,
					"material":4
				}
			]
		}
	],
	"accessors":[
		{
			"bufferView":0,
			"componentType":5126,
			"count":24,
			"max":[
				1,
				0.9999998807907104,
				1
			],
			"min":[
				-1,
				-1.0000001192092896,
				-1
			],
			"type":"VEC3"
		},
		{
			"bufferView":1,
			"componentType":5126,
			"count":24,
			"type":"VEC3"
		},
		{
			"bufferView":2,
			"componentType":5126,
			"count":24,
			"type":"VEC2"
		},
		{
			"bufferView":3,
			"componentType":5123,
			"count":36,
			"type":"SCALAR"
		},
		{
			"bufferView":4,
			"componentType":5126,
			"count":4,
			"max":[
				21.783777236938477,
				0,
				15.3756742477417
			],
			"min":[
				-21.783777236938477,
				0,
				-15.3756742477417
			],
			"type":"VEC3"
		},
		{
			"bufferView":5,
			"componentType":5126,
			"count":4,
			"type":"VEC3"
		},
		{
			"bufferView":6,
			"componentType":5126,
			"count":4,
			"type":"VEC2"
		},
		{
			"bufferView":7,
			"componentType":5123,
			"count":6,
			"type":"SCALAR"
		},
		{
			"bufferView":8,
			"componentType":5126,
			"count":4,
			"max":[
				54.405731201171875,
				50.55534744262695,
				-13.321615219116211
			],
			"min":[
				-69.7908935546875,
				-37.10652542114258,
				-13.321619033813477
			],
			"type":"VEC3"
		},
		{
			"bufferView":9,
			"componentType":5126,
			"count":4,
			"type":"VEC3"
		},
		{
			"bufferView":10,
			"componentType":5126,
			"count":4,
			"type":"VEC2"
		},
		{
			"bufferView":11,
			"componentType":5126,
			"count":825,
			"max":[
				3.7652904987335205,
				0,
				0.01070336438715458
			],
			"min":[
				0.028287462890148163,
				0,
				-0.5764526128768921
			],
			"type":"VEC3"
		},
		{
			"bufferView":12,
			"componentType":5126,
			"count":825,
			"type":"VEC3"
		},
		{
			"bufferView":13,
			"componentType":5126,
			"count":825,
			"type":"VEC2"
		},
		{
			"bufferView":14,
			"componentType":5123,
			"count":2289,
			"type":"SCALAR"
		},
		{
			"bufferView":15,
			"componentType":5126,
			"count":24,
			"max":[
				1,
				0.9999998807907104,
				1
			],
			"min":[
				-1,
				-1.0000001192092896,
				-1
			],
			"type":"VEC3"
		},
		{
			"bufferView":16,
			"componentType":5126,
			"count":24,
			"type":"VEC3"
		},
		{
			"bufferView":17,
			"componentType":5126,
			"count":24,
			"type":"VEC2"
		},
		{
			"bufferView":18,
			"componentType":5126,
			"count":24,
			"max":[
				1,
				0.9999998807907104,
				1
			],
			"min":[
				-1,
				-1.0000001192092896,
				-1
			],
			"type":"VEC3"
		},
		{
			"bufferView":19,
			"componentType":5126,
			"count":24,
			"type":"VEC3"
		},
		{
			"bufferView":20,
			"componentType":5126,
			"count":24,
			"type":"VEC2"
		},
		{
			"bufferView":21,
			"componentType":5126,
			"count":318,
			"max":[
				13.208333333333334
			],
			"min":[
				0
			],
			"type":"SCALAR"
		},
		{
			"bufferView":22,
			"componentType":5126,
			"count":318,
			"type":"VEC3"
		},
		{
			"bufferView":23,
			"componentType":5126,
			"count":318,
			"type":"VEC4"
		},
		{
			"bufferView":24,
			"componentType":5126,
			"count":318,
			"type":"VEC3"
		},
		{
			"bufferView":25,
			"componentType":5126,
			"count":431,
			"max":[
				17.916666666666668
			],
			"min":[
				0
			],
			"type":"SCALAR"
		},
		{
			"bufferView":26,
			"componentType":5126,
			"count":431,
			"type":"VEC3"
		},
		{
			"bufferView":27,
			"componentType":5126,
			"count":431,
			"type":"VEC4"
		},
		{
			"bufferView":28,
			"componentType":5126,
			"count":2,
			"max":[
				17.916666666666668
			],
			"min":[
				0
			],
			"type":"SCALAR"
		},
		{
			"bufferView":29,
			"componentType":5126,
			"count":2,
			"type":"VEC3"
		},
		{
			"bufferView":30,
			"componentType":5126,
			"count":498,
			"max":[
				20.708333333333332
			],
			"min":[
				0
			],
			"type":"SCALAR"
		},
		{
			"bufferView":31,
			"componentType":5126,
			"count":498,
			"type":"VEC3"
		},
		{
			"bufferView":32,
			"componentType":5126,
			"count":2,
			"max":[
				20.708333333333332
			],
			"min":[
				0
			],
			"type":"SCALAR"
		},
		{
			"bufferView":33,
			"componentType":5126,
			"count":2,
			"type":"VEC4"
		},
		{
			"bufferView":34,
			"componentType":5126,
			"count":2,
			"type":"VEC3"
		},
		{
			"bufferView":35,
			"componentType":5126,
			"count":304,
			"max":[
				18.541666666666668
			],
			"min":[
				5.916666666666667
			],
			"type":"SCALAR"
		},
		{
			"bufferView":36,
			"componentType":5126,
			"count":304,
			"type":"VEC3"
		},
		{
			"bufferView":37,
			"componentType":5126,
			"count":2,
			"max":[
				18.541666666666668
			],
			"min":[
				5.916666666666667
			],
			"type":"SCALAR"
		},
		{
			"bufferView":38,
			"componentType":5126,
			"count":2,
			"type":"VEC3"
		},
		{
			"bufferView":39,
			"componentType":5126,
			"count":387,
			"max":[
				16.083333333333332
			],
			"min":[
				0
			],
			"type":"SCALAR"
		},
		{
			"bufferView":40,
			"componentType":5126,
			"count":387,
			"type":"VEC3"
		},
		{
			"bufferView":41,
			"componentType":5126,
			"count":387,
			"type":"VEC4"
		},
		{
			"bufferView":42,
			"componentType":5126,
			"count":387,
			"type":"VEC3"
		},
		{
			"bufferView":43,
			"componentType":5126,
			"count":367,
			"max":[
				15.25
			],
			"min":[
				0
			],
			"type":"SCALAR"
		},
		{
			"bufferView":44,
			"componentType":5126,
			"count":367,
			"type":"VEC3"
		},
		{
			"bufferView":45,
			"componentType":5126,
			"count":367,
			"type":"VEC4"
		},
		{
			"bufferView":46,
			"componentType":5126,
			"count":367,
			"type":"VEC3"
		}
	],
	"bufferViews":[
		{
			"buffer":0,
			"byteLength":288,
			"byteOffset":0,
			"target":34962
		},
		{
			"buffer":0,
			"byteLength":288,
			"byteOffset":288,
			"target":34962
		},
		{
			"buffer":0,
			"byteLength":192,
			"byteOffset":576,
			"target":34962
		},
		{
			"buffer":0,
			"byteLength":72,
			"byteOffset":768,
			"target":34963
		},
		{
			"buffer":0,
			"byteLength":48,
			"byteOffset":840,
			"target":34962
		},
		{
			"buffer":0,
			"byteLength":48,
			"byteOffset":888,
			"target":34962
		},
		{
			"buffer":0,
			"byteLength":32,
			"byteOffset":936,
			"target":34962
		},
		{
			"buffer":0,
			"byteLength":12,
			"byteOffset":968,
			"target":34963
		},
		{
			"buffer":0,
			"byteLength":48,
			"byteOffset":980,
			"target":34962
		},
		{
			"buffer":0,
			"byteLength":48,
			"byteOffset":1028,
			"target":34962
		},
		{
			"buffer":0,
			"byteLength":32,
			"byteOffset":1076,
			"target":34962
		},
		{
			"buffer":0,
			"byteLength":9900,
			"byteOffset":1108,
			"target":34962
		},
		{
			"buffer":0,
			"byteLength":9900,
			"byteOffset":11008,
			"target":34962
		},
		{
			"buffer":0,
			"byteLength":6600,
			"byteOffset":20908,
			"target":34962
		},
		{
			"buffer":0,
			"byteLength":4578,
			"byteOffset":27508,
			"target":34963
		},
		{
			"buffer":0,
			"byteLength":288,
			"byteOffset":32088,
			"target":34962
		},
		{
			"buffer":0,
			"byteLength":288,
			"byteOffset":32376,
			"target":34962
		},
		{
			"buffer":0,
			"byteLength":192,
			"byteOffset":32664,
			"target":34962
		},
		{
			"buffer":0,
			"byteLength":288,
			"byteOffset":32856,
			"target":34962
		},
		{
			"buffer":0,
			"byteLength":288,
			"byteOffset":33144,
			"target":34962
		},
		{
			"buffer":0,
			"byteLength":192,
			"byteOffset":33432,
			"target":34962
		},
		{
			"buffer":0,
			"byteLength":1272,
			"byteOffset":33624
		},
		{
			"buffer":0,
			"byteLength":3816,
			"byteOffset":34896
		},
		{
			"buffer":0,
			"byteLength":5088,
			"byteOffset":38712
		},
		{
			"buffer":0,
			"byteLength":3816,
			"byteOffset":43800
		},
		{
			"buffer":0,
			"byteLength":1724,
			"byteOffset":47616
		},
		{
			"buffer":0,
			"byteLength":5172,
			"byteOffset":49340
		},
		{
			"buffer":0,
			"byteLength":6896,
			"byteOffset":54512
		},
		{
			"buffer":0,
			"byteLength":8,
			"byteOffset":61408
		},
		{
			"buffer":0,
			"byteLength":24,
			"byteOffset":61416
		},
		{
			"buffer":0,
			"byteLength":1992,
			"byteOffset":61440
		},
		{
			"buffer":0,
			"byteLength":5976,
			"byteOffset":63432
		},
		{
			"buffer":0,
			"byteLength":8,
			"byteOffset":69408
		},
		{
			"buffer":0,
			"byteLength":32,
			"byteOffset":69416
		},
		{
			"buffer":0,
			"byteLength":24,
			"byteOffset":69448
		},
		{
			"buffer":0,
			"byteLength":1216,
			"byteOffset":69472
		},
		{
			"buffer":0,
			"byteLength":3648,
			"byteOffset":70688
		},
		{
			"buffer":0,
			"byteLength":8,
			"byteOffset":74336
		},
		{
			"buffer":0,
			"byteLength":24,
			"byteOffset":74344
		},
		{
			"buffer":0,
			"byteLength":1548,
			"byteOffset":74368
		},
		{
			"buffer":0,
			"byteLength":4644,
			"byteOffset":75916
		},
		{
			"buffer":0,
			"byteLength":6192,
			"byteOffset":80560
		},
		{
			"buffer":0,
			"byteLength":4644,
			"byteOffset":86752
		},
		{
			"buffer":0,
			"byteLength":1468,
			"byteOffset":91396
		},
		{
			"buffer":0,
			"byteLength":4404,
			"byteOffset":92864
		},
		{
			"buffer":0,
			"byteLength":5872,
			"byteOffset":97268
		},
		{
			"buffer":0,
			"byteLength":4404,
			"byteOffset":103140
		}
	],
	"buffers":[
		{
			"byteLength":107544,
			"uri":"data:application/octet-stream;base64,"
		}
	]
}
