{
	"asset":{
		"generator":"Khronos glTF Blender I/O v3.6.27",
		"version":"2.0"
	},
	"scene":0,
	"scenes":[
		{
			"name":"Scene",
			"nodes":[
				0,
				1
			]
		}
	],
	"nodes":[
		{
			"mesh":0,
			"name":"Cube"
		},
		{
			"mesh":1,
			"name":"Plane"
		}
	],
	"meshes":[
		{
			"name":"Cube",
			"primitives":[
				{
					"attributes":{
						"POSITION":0,
						"TEXCOORD_0":1
					},
					"indices":2
				}
			]
		},
		{
			"name":"Plane",
			"primitives":[
				{
					"attributes":{
						"POSITION":3,
						"TEXCOORD_0":4
					},
					"indices":5
				}
			]
		}
	],
	"accessors":[
		{
			"bufferView":0,
			"componentType":5126,
			"count":14,
			"max":[
				1,
				2.8247642517089844,
				1
			],
			"min":[
				-1,
				0.8247642517089844,
				-1
			],
			"type":"VEC3"
		},
		{
			"bufferView":1,
			"componentType":5126,
			"count":14,
			"type":"VEC2"
		},
		{
			"bufferView":2,
			"componentType":5123,
			"count":36,
			"type":"SCALAR"
		},
		{
			"bufferView":3,
			"componentType":5126,
			"count":4,
			"max":[
				5.6300177574157715,
				0,
				5.6300177574157715
			],
			"min":[
				-5.6300177574157715,
				0,
				-5.6300177574157715
			],
			"type":"VEC3"
		},
		{
			"bufferView":4,
			"componentType":5126,
			"count":4,
			"type":"VEC2"
		},
		{
			"bufferView":5,
			"componentType":5123,
			"count":6,
			"type":"SCALAR"
		}
	],
	"bufferViews":[
		{
			"buffer":0,
			"byteLength":168,
			"byteOffset":0,
			"target":34962
		},
		{
			"buffer":0,
			"byteLength":112,
			"byteOffset":168,
			"target":34962
		},
		{
			"buffer":0,
			"byteLength":72,
			"byteOffset":280,
			"target":34963
		},
		{
			"buffer":0,
			"byteLength":48,
			"byteOffset":352,
			"target":34962
		},
		{
			"buffer":0,
			"byteLength":32,
			"byteOffset":400,
			"target":34962
		},
		{
			"buffer":0,
			"byteLength":12,
			"byteOffset":432,
			"target":34963
		}
	],
	"buffers":[
		{
			"byteLength":444,
			"uri":"data:application/octet-stream;base64,"
		}
	]
}
