{
	"asset":{
		"generator":"Khronos glTF Blender I/O v3.6.27",
		"version":"2.0"
	},
	"scene":0,
	"scenes":[
		{
			"name":"Scene",
			"nodes":[
				0
			]
		}
	],
	"nodes":[
		{
			"mesh":0,
			"name":"Text",
			"rotation":[
				0.7071068286895752,
				0,
				0,
				0.7071068286895752
			],
			"scale":[
				0.9300000071525574,
				1,
				1
			],
			"translation":[
				0.16097065806388855,
				-0.07871578633785248,
				0
			]
		}
	],
	"meshes":[
		{
			"name":"Text",
			"primitives":[
				{
					"attributes":{
						"POSITION":0,
						"NORMAL":1,
						"TEXCOORD_0":2
					},
					"indices":3
				}
			]
		}
	],
	"accessors":[
		{
			"bufferView":0,
			"componentType":5126,
			"count":2156,
			"max":[
				1.7476465702056885,
				0.03999999910593033,
				0.26937004923820496
			],
			"min":[
				-1.747646689414978,
				-0.03999999910593033,
				-0.26937001943588257
			],
			"type":"VEC3"
		},
		{
			"bufferView":1,
			"componentType":5126,
			"count":2156,
			"type":"VEC3"
		},
		{
			"bufferView":2,
			"componentType":5126,
			"count":2156,
			"type":"VEC2"
		},
		{
			"bufferView":3,
			"componentType":5123,
			"count":6360,
			"type":"SCALAR"
		}
	],
	"bufferViews":[
		{
			"buffer":0,
			"byteLength":25872,
			"byteOffset":0,
			"target":34962
		},
		{
			"buffer":0,
			"byteLength":25872,
			"byteOffset":25872,
			"target":34962
		},
		{
			"buffer":0,
			"byteLength":17248,
			"byteOffset":51744,
			"target":34962
		},
		{
			"buffer":0,
			"byteLength":12720,
			"byteOffset":68992,
			"target":34963
		}
	],
	"buffers":[
		{
			"byteLength":81712,
			"uri":"data:application/octet-stream;base64,"
		}
	]
}
