{
	"asset":{
		"generator":"Khronos glTF Blender I/O v3.6.27",
		"version":"2.0"
	},
	"scene":0,
	"scenes":[
		{
			"name":"Scene",
			"nodes":[
				13
			]
		}
	],
	"nodes":[
		{
			"mesh":0,
			"name":"Cube",
			"rotation":[
				-0.6532815098762512,
				-0.27059805393218994,
				0.27059808373451233,
				0.6532815098762512
			],
			"translation":[
				0.18411493301391602,
				-1.1963404417037964,
				1.9382611513137817
			]
		},
		{
			"mesh":1,
			"name":"Cube.001",
			"rotation":[
				-0.6532815098762512,
				-0.27059805393218994,
				0.27059808373451233,
				0.6532815098762512
			],
			"translation":[
				0.18411493301391602,
				-1.1963404417037964,
				1.9382611513137817
			]
		},
		{
			"mesh":2,
			"name":"Cube.002",
			"rotation":[
				-0.6532815098762512,
				-0.27059805393218994,
				0.27059808373451233,
				0.6532815098762512
			],
			"translation":[
				0.18411493301391602,
				-1.1963404417037964,
				1.9382611513137817
			]
		},
		{
			"mesh":3,
			"name":"Cube.003",
			"rotation":[
				-0.6532815098762512,
				-0.27059805393218994,
				0.27059808373451233,
				0.6532815098762512
			],
			"translation":[
				0.18411493301391602,
				-1.1963404417037964,
				1.9382611513137817
			]
		},
		{
			"mesh":4,
			"name":"Cube.004",
			"rotation":[
				-0.6532815098762512,
				-0.27059805393218994,
				0.27059808373451233,
				0.6532815098762512
			],
			"translation":[
				0.18411493301391602,
				-1.1963404417037964,
				1.9382611513137817
			]
		},
		{
			"mesh":5,
			"name":"Cube.005",
			"rotation":[
				-0.6532815098762512,
				-0.27059805393218994,
				0.27059808373451233,
				0.6532815098762512
			],
			"translation":[
				0.18411493301391602,
				-1.1963404417037964,
				1.9382611513137817
			]
		},
		{
			"mesh":6,
			"name":"Cube.006",
			"rotation":[
				-0.6532815098762512,
				-0.27059805393218994,
				0.27059808373451233,
				0.6532815098762512
			],
			"translation":[
				0.18411493301391602,
				-1.1963404417037964,
				1.9382611513137817
			]
		},
		{
			"mesh":7,
			"name":"Cube.007",
			"rotation":[
				-0.6532815098762512,
				-0.27059805393218994,
				0.27059808373451233,
				0.6532815098762512
			],
			"translation":[
				0.18411493301391602,
				-1.1963404417037964,
				1.9382611513137817
			]
		},
		{
			"mesh":8,
			"name":"Cube.008",
			"rotation":[
				-0.6532815098762512,
				-0.27059805393218994,
				0.27059808373451233,
				0.6532815098762512
			],
			"translation":[
				0.18411493301391602,
				-1.1963404417037964,
				1.9382611513137817
			]
		},
		{
			"mesh":9,
			"name":"Cube.009",
			"rotation":[
				-0.6532815098762512,
				-0.27059805393218994,
				0.27059808373451233,
				0.6532815098762512
			],
			"translation":[
				0.18411493301391602,
				-1.1963404417037964,
				1.9382611513137817
			]
		},
		{
			"mesh":10,
			"name":"Cube.010",
			"rotation":[
				-0.6532815098762512,
				-0.27059805393218994,
				0.27059808373451233,
				0.6532815098762512
			],
			"translation":[
				0.18411493301391602,
				-1.1963404417037964,
				1.9382611513137817
			]
		},
		{
			"mesh":11,
			"name":"Cube.011",
			"rotation":[
				-0.6532815098762512,
				-0.27059805393218994,
				0.27059808373451233,
				0.6532815098762512
			],
			"translation":[
				0.18411493301391602,
				-1.1963404417037964,
				1.9382611513137817
			]
		},
		{
			"mesh":12,
			"name":"Plane",
			"rotation":[
				-0.6532815098762512,
				-0.27059805393218994,
				0.27059808373451233,
				0.6532815098762512
			],
			"translation":[
				0.18411493301391602,
				-1.1963404417037964,
				1.9382611513137817
			]
		},
		{
			"children":[
				0,
				1,
				2,
				3,
				4,
				5,
				6,
				7,
				8,
				9,
				10,
				11,
				12
			],
			"mesh":13,
			"name":"Text.001",
			"rotation":[
				0.7071068286895752,
				0,
				0,
				0.7071068286895752
			],
			"translation":[
				0.7157515287399292,
				1.9382609128952026,
				0.976129412651062
			]
		}
	],
	"materials":[
		{
			"doubleSided":true,
			"name":"Material.001",
			"pbrMetallicRoughness":{
				"metallicFactor":0,
				"roughnessFactor":0.5
			}
		},
		{
			"doubleSided":true,
			"name":"Material.013",
			"pbrMetallicRoughness":{
				"metallicFactor":0,
				"roughnessFactor":0.5
			}
		},
		{
			"doubleSided":true,
			"name":"Material.014",
			"pbrMetallicRoughness":{
				"metallicFactor":0,
				"roughnessFactor":0.5
			}
		},
		{
			"doubleSided":true,
			"name":"Material.010",
			"pbrMetallicRoughness":{
				"metallicFactor":0,
				"roughnessFactor":0.5
			}
		},
		{
			"doubleSided":true,
			"name":"Material.012",
			"pbrMetallicRoughness":{
				"metallicFactor":0,
				"roughnessFactor":0.5
			}
		}
	],
	"meshes":[
		{
			"name":"Cube",
			"primitives":[
				{
					"attributes":{
						"POSITION":0,
						"NORMAL":1,
						"TEXCOORD_0":2
					},
					"indices":3,
					"material":0
				}
			]
		},
		{
			"name":"Cube.001",
			"primitives":[
				{
					"attributes":{
						"POSITION":4,
						"NORMAL":5,
						"TEXCOORD_0":6
					},
					"indices":7,
					"material":0
				}
			]
		},
		{
			"name":"Cube.002",
			"primitives":[
				{
					"attributes":{
						"POSITION":8,
						"NORMAL":9,
						"TEXCOORD_0":10
					},
					"indices":11,
					"material":0
				}
			]
		},
		{
			"name":"Cube.003",
			"primitives":[
				{
					"attributes":{
						"POSITION":12,
						"NORMAL":13,
						"TEXCOORD_0":14
					},
					"indices":3,
					"material":0
				}
			]
		},
		{
			"name":"Cube.004",
			"primitives":[
				{
					"attributes":{
						"POSITION":15,
						"NORMAL":16,
						"TEXCOORD_0":17
					},
					"indices":18,
					"material":0
				}
			]
		},
		{
			"name":"Cube.005",
			"primitives":[
				{
					"attributes":{
						"POSITION":19,
						"NORMAL":20,
						"TEXCOORD_0":21
					},
					"indices":7,
					"material":0
				}
			]
		},
		{
			"name":"Cube.006",
			"primitives":[
				{
					"attributes":{
						"POSITION":22,
						"NORMAL":23,
						"TEXCOORD_0":24
					},
					"indices":7,
					"material":0
				}
			]
		},
		{
			"name":"Cube.007",
			"primitives":[
				{
					"attributes":{
						"POSITION":25,
						"NORMAL":26,
						"TEXCOORD_0":27
					},
					"indices":18,
					"material":0
				}
			]
		},
		{
			"name":"Cube.008",
			"primitives":[
				{
					"attributes":{
						"POSITION":28,
						"NORMAL":29,
						"TEXCOORD_0":30
					},
					"indices":3,
					"material":0
				}
			]
		},
		{
			"name":"Cube.009",
			"primitives":[
				{
					"attributes":{
						"POSITION":31,
						"NORMAL":32,
						"TEXCOORD_0":33
					},
					"indices":11,
					"material":0
				}
			]
		},
		{
			"name":"Cube.010",
			"primitives":[
				{
					"attributes":{
						"POSITION":34,
						"NORMAL":35,
						"TEXCOORD_0":36
					},
					"indices":11,
					"material":1
				}
			]
		},
		{
			"name":"Cube.011",
			"primitives":[
				{
					"attributes":{
						"POSITION":37,
						"NORMAL":38,
						"TEXCOORD_0":39
					},
					"indices":40,
					"material":2
				}
			]
		},
		{
			"name":"Plane",
			"primitives":[
				{
					"attributes":{
						"POSITION":41,
						"NORMAL":42,
						"TEXCOORD_0":43
					},
					"indices":44,
					"material":3
				}
			]
		},
		{
			"name":"Text.001",
			"primitives":[
				{
					"attributes":{
						"POSITION":45,
						"NORMAL":46,
						"TEXCOORD_0":47
					},
					"indices":48,
					"material":4
				}
			]
		}
	],
	"accessors":[
		{
			"bufferView":0,
			"componentType":5126,
			"count":24,
			"max":[
				-0.9879903793334961,
				2.4633166790008545,
				3.20656156539917
			],
			"min":[
				-4.099686145782471,
				-0.865229070186615,
				-0.07885551452636719
			],
			"type":"VEC3"
		},
		{
			"bufferView":1,
			"componentType":5126,
			"count":24,
			"type":"VEC3"
		},
		{
			"bufferView":2,
			"componentType":5126,
			"count":24,
			"type":"VEC2"
		},
		{
			"bufferView":3,
			"componentType":5123,
			"count":36,
			"type":"SCALAR"
		},
		{
			"bufferView":4,
			"componentType":5126,
			"count":24,
			"max":[
				-0.27123355865478516,
				2.5729799270629883,
				1.5363839864730835
			],
			"min":[
				-2.8947737216949463,
				0.09959685802459717,
				-1.226326584815979
			],
			"type":"VEC3"
		},
		{
			"bufferView":5,
			"componentType":5126,
			"count":24,
			"type":"VEC3"
		},
		{
			"bufferView":6,
			"componentType":5126,
			"count":24,
			"type":"VEC2"
		},
		{
			"bufferView":7,
			"componentType":5123,
			"count":36,
			"type":"SCALAR"
		},
		{
			"bufferView":8,
			"componentType":5126,
			"count":24,
			"max":[
				-2.8478541374206543,
				2.8977584838867188,
				3.7996201515197754
			],
			"min":[
				-5.469318866729736,
				0.17872470617294312,
				1.18361234664917
			],
			"type":"VEC3"
		},
		{
			"bufferView":9,
			"componentType":5126,
			"count":24,
			"type":"VEC3"
		},
		{
			"bufferView":10,
			"componentType":5126,
			"count":24,
			"type":"VEC2"
		},
		{
			"bufferView":11,
			"componentType":5123,
			"count":36,
			"type":"SCALAR"
		},
		{
			"bufferView":12,
			"componentType":5126,
			"count":24,
			"max":[
				0.9465670585632324,
				4.689223289489746,
				-0.36693811416625977
			],
			"min":[
				-3.391814708709717,
				0.1395254135131836,
				-4.789490222930908
			],
			"type":"VEC3"
		},
		{
			"bufferView":13,
			"componentType":5126,
			"count":24,
			"type":"VEC3"
		},
		{
			"bufferView":14,
			"componentType":5126,
			"count":24,
			"type":"VEC2"
		},
		{
			"bufferView":15,
			"componentType":5126,
			"count":24,
			"max":[
				2.6123762130737305,
				3.140563488006592,
				-1.7056617736816406
			],
			"min":[
				-0.3800119161605835,
				-0.13083279132843018,
				-4.521215438842773
			],
			"type":"VEC3"
		},
		{
			"bufferView":16,
			"componentType":5126,
			"count":24,
			"type":"VEC3"
		},
		{
			"bufferView":17,
			"componentType":5126,
			"count":24,
			"type":"VEC2"
		},
		{
			"bufferView":18,
			"componentType":5123,
			"count":36,
			"type":"SCALAR"
		},
		{
			"bufferView":19,
			"componentType":5126,
			"count":24,
			"max":[
				-1.1084403991699219,
				4.564011096954346,
				1.8600308895111084
			],
			"min":[
				-4.205377578735352,
				1.2526906728744507,
				-1.5508863925933838
			],
			"type":"VEC3"
		},
		{
			"bufferView":20,
			"componentType":5126,
			"count":24,
			"type":"VEC3"
		},
		{
			"bufferView":21,
			"componentType":5126,
			"count":24,
			"type":"VEC2"
		},
		{
			"bufferView":22,
			"componentType":5126,
			"count":24,
			"max":[
				3.6432745456695557,
				4.32343864440918,
				-2.9979209899902344
			],
			"min":[
				0.5384223461151123,
				1.0026801824569702,
				-6.410836219787598
			],
			"type":"VEC3"
		},
		{
			"bufferView":23,
			"componentType":5126,
			"count":24,
			"type":"VEC3"
		},
		{
			"bufferView":24,
			"componentType":5126,
			"count":24,
			"type":"VEC2"
		},
		{
			"bufferView":25,
			"componentType":5126,
			"count":24,
			"max":[
				4.496728897094727,
				3.8852968215942383,
				-4.621874809265137
			],
			"min":[
				1.8595271110534668,
				1.3371165990829468,
				-7.018745422363281
			],
			"type":"VEC3"
		},
		{
			"bufferView":26,
			"componentType":5126,
			"count":24,
			"type":"VEC3"
		},
		{
			"bufferView":27,
			"componentType":5126,
			"count":24,
			"type":"VEC2"
		},
		{
			"bufferView":28,
			"componentType":5126,
			"count":24,
			"max":[
				-3.7782135009765625,
				4.040319442749023,
				4.52290153503418
			],
			"min":[
				-6.5822296142578125,
				1.079620599746704,
				1.6452338695526123
			],
			"type":"VEC3"
		},
		{
			"bufferView":29,
			"componentType":5126,
			"count":24,
			"type":"VEC3"
		},
		{
			"bufferView":30,
			"componentType":5126,
			"count":24,
			"type":"VEC2"
		},
		{
			"bufferView":31,
			"componentType":5126,
			"count":24,
			"max":[
				-2.9725735187530518,
				4.732611656188965,
				2.8542540073394775
			],
			"min":[
				-5.344508171081543,
				2.295987606048584,
				0.4782278537750244
			],
			"type":"VEC3"
		},
		{
			"bufferView":32,
			"componentType":5126,
			"count":24,
			"type":"VEC3"
		},
		{
			"bufferView":33,
			"componentType":5126,
			"count":24,
			"type":"VEC2"
		},
		{
			"bufferView":34,
			"componentType":5126,
			"count":24,
			"max":[
				1.6326282024383545,
				5.122017860412598,
				-2.0654332637786865
			],
			"min":[
				-0.7393064498901367,
				2.685394048690796,
				-4.441459655761719
			],
			"type":"VEC3"
		},
		{
			"bufferView":35,
			"componentType":5126,
			"count":24,
			"type":"VEC3"
		},
		{
			"bufferView":36,
			"componentType":5126,
			"count":24,
			"type":"VEC2"
		},
		{
			"bufferView":37,
			"componentType":5126,
			"count":24,
			"max":[
				4.4460320472717285,
				2.3219542503356934,
				-4.062446117401123
			],
			"min":[
				1.3451290130615234,
				-0.5004380941390991,
				-6.971656322479248
			],
			"type":"VEC3"
		},
		{
			"bufferView":38,
			"componentType":5126,
			"count":24,
			"type":"VEC3"
		},
		{
			"bufferView":39,
			"componentType":5126,
			"count":24,
			"type":"VEC2"
		},
		{
			"bufferView":40,
			"componentType":5123,
			"count":36,
			"type":"SCALAR"
		},
		{
			"bufferView":41,
			"componentType":5126,
			"count":4,
			"max":[
				6.830909729003906,
				0.14000000059604645,
				6.830909729003906
			],
			"min":[
				-6.830909729003906,
				0.14000000059604645,
				-6.830909729003906
			],
			"type":"VEC3"
		},
		{
			"bufferView":42,
			"componentType":5126,
			"count":4,
			"type":"VEC3"
		},
		{
			"bufferView":43,
			"componentType":5126,
			"count":4,
			"type":"VEC2"
		},
		{
			"bufferView":44,
			"componentType":5123,
			"count":6,
			"type":"SCALAR"
		},
		{
			"bufferView":45,
			"componentType":5126,
			"count":2404,
			"max":[
				2.0079166889190674,
				0.0899999812245369,
				1.0083333253860474
			],
			"min":[
				-2.165416717529297,
				-0.0899999812245369,
				-0.6100000143051147
			],
			"type":"VEC3"
		},
		{
			"bufferView":46,
			"componentType":5126,
			"count":2404,
			"type":"VEC3"
		},
		{
			"bufferView":47,
			"componentType":5126,
			"count":2404,
			"type":"VEC2"
		},
		{
			"bufferView":48,
			"componentType":5123,
			"count":6864,
			"type":"SCALAR"
		}
	],
	"bufferViews":[
		{
			"buffer":0,
			"byteLength":288,
			"byteOffset":0,
			"target":34962
		},
		{
			"buffer":0,
			"byteLength":288,
			"byteOffset":288,
			"target":34962
		},
		{
			"buffer":0,
			"byteLength":192,
			"byteOffset":576,
			"target":34962
		},
		{
			"buffer":0,
			"byteLength":72,
			"byteOffset":768,
			"target":34963
		},
		{
			"buffer":0,
			"byteLength":288,
			"byteOffset":840,
			"target":34962
		},
		{
			"buffer":0,
			"byteLength":288,
			"byteOffset":1128,
			"target":34962
		},
		{
			"buffer":0,
			"byteLength":192,
			"byteOffset":1416,
			"target":34962
		},
		{
			"buffer":0,
			"byteLength":72,
			"byteOffset":1608,
			"target":34963
		},
		{
			"buffer":0,
			"byteLength":288,
			"byteOffset":1680,
			"target":34962
		},
		{
			"buffer":0,
			"byteLength":288,
			"byteOffset":1968,
			"target":34962
		},
		{
			"buffer":0,
			"byteLength":192,
			"byteOffset":2256,
			"target":34962
		},
		{
			"buffer":0,
			"byteLength":72,
			"byteOffset":2448,
			"target":34963
		},
		{
			"buffer":0,
			"byteLength":288,
			"byteOffset":2520,
			"target":34962
		},
		{
			"buffer":0,
			"byteLength":288,
			"byteOffset":2808,
			"target":34962
		},
		{
			"buffer":0,
			"byteLength":192,
			"byteOffset":3096,
			"target":34962
		},
		{
			"buffer":0,
			"byteLength":288,
			"byteOffset":3288,
			"target":34962
		},
		{
			"buffer":0,
			"byteLength":288,
			"byteOffset":3576,
			"target":34962
		},
		{
			"buffer":0,
			"byteLength":192,
			"byteOffset":3864,
			"target":34962
		},
		{
			"buffer":0,
			"byteLength":72,
			"byteOffset":4056,
			"target":34963
		},
		{
			"buffer":0,
			"byteLength":288,
			"byteOffset":4128,
			"target":34962
		},
		{
			"buffer":0,
			"byteLength":288,
			"byteOffset":4416,
			"target":34962
		},
		{
			"buffer":0,
			"byteLength":192,
			"byteOffset":4704,
			"target":34962
		},
		{
			"buffer":0,
			"byteLength":288,
			"byteOffset":4896,
			"target":34962
		},
		{
			"buffer":0,
			"byteLength":288,
			"byteOffset":5184,
			"target":34962
		},
		{
			"buffer":0,
			"byteLength":192,
			"byteOffset":5472,
			"target":34962
		},
		{
			"buffer":0,
			"byteLength":288,
			"byteOffset":5664,
			"target":34962
		},
		{
			"buffer":0,
			"byteLength":288,
			"byteOffset":5952,
			"target":34962
		},
		{
			"buffer":0,
			"byteLength":192,
			"byteOffset":6240,
			"target":34962
		},
		{
			"buffer":0,
			"byteLength":288,
			"byteOffset":6432,
			"target":34962
		},
		{
			"buffer":0,
			"byteLength":288,
			"byteOffset":6720,
			"target":34962
		},
		{
			"buffer":0,
			"byteLength":192,
			"byteOffset":7008,
			"target":34962
		},
		{
			"buffer":0,
			"byteLength":288,
			"byteOffset":7200,
			"target":34962
		},
		{
			"buffer":0,
			"byteLength":288,
			"byteOffset":7488,
			"target":34962
		},
		{
			"buffer":0,
			"byteLength":192,
			"byteOffset":7776,
			"target":34962
		},
		{
			"buffer":0,
			"byteLength":288,
			"byteOffset":7968,
			"target":34962
		},
		{
			"buffer":0,
			"byteLength":288,
			"byteOffset":8256,
			"target":34962
		},
		{
			"buffer":0,
			"byteLength":192,
			"byteOffset":8544,
			"target":34962
		},
		{
			"buffer":0,
			"byteLength":288,
			"byteOffset":8736,
			"target":34962
		},
		{
			"buffer":0,
			"byteLength":288,
			"byteOffset":9024,
			"target":34962
		},
		{
			"buffer":0,
			"byteLength":192,
			"byteOffset":9312,
			"target":34962
		},
		{
			"buffer":0,
			"byteLength":72,
			"byteOffset":9504,
			"target":34963
		},
		{
			"buffer":0,
			"byteLength":48,
			"byteOffset":9576,
			"target":34962
		},
		{
			"buffer":0,
			"byteLength":48,
			"byteOffset":9624,
			"target":34962
		},
		{
			"buffer":0,
			"byteLength":32,
			"byteOffset":9672,
			"target":34962
		},
		{
			"buffer":0,
			"byteLength":12,
			"byteOffset":9704,
			"target":34963
		},
		{
			"buffer":0,
			"byteLength":28848,
			"byteOffset":9716,
			"target":34962
		},
		{
			"buffer":0,
			"byteLength":28848,
			"byteOffset":38564,
			"target":34962
		},
		{
			"buffer":0,
			"byteLength":19232,
			"byteOffset":67412,
			"target":34962
		},
		{
			"buffer":0,
			"byteLength":13728,
			"byteOffset":86644,
			"target":34963
		}
	],
	"buffers":[
		{
			"byteLength":100372,
			"uri":"data:application/octet-stream;base64,"
		}
	]
}
